<svg width="216" height="216" viewBox="0 0 216 216" fill="none" xmlns="http://www.w3.org/2000/svg">
<path d="M5.05005 5.05C11.6125 -1.5125 22.2491 -1.5125 28.8081 5.05L108.003 84.245L187.198 5.05C193.761 -1.5125 204.397 -1.5125 210.956 5.05C217.519 11.6125 217.519 22.249 210.956 28.808L131.761 108.003L210.956 187.198C217.519 193.76 217.519 204.397 210.956 210.956C204.394 217.518 193.757 217.515 187.198 210.956L108.003 131.761L28.8081 210.956C22.2456 217.515 11.609 217.515 5.05005 210.956C-1.51245 204.393 -1.51245 193.757 5.05005 187.198L84.245 108.003L5.05005 28.808C-1.51245 22.2455 -1.51245 11.609 5.05005 5.05V5.05Z" fill="black"/>
</svg>
