<svg width="150" height="171" viewBox="0 0 150 171" fill="none" xmlns="http://www.w3.org/2000/svg">
<path d="M74.9982 170.729C116.423 170.729 150 136.956 150 95.289C150 53.6259 116.423 19.8522 74.9982 19.8522C33.5772 19.8522 0 53.6259 0 95.289C0 136.956 33.5772 170.729 74.9982 170.729ZM40.2476 38.6592L45.1491 47.2001L48.5223 45.2415L43.614 36.6937C52.4169 31.9115 62.4225 29.0964 73.0545 28.7866V47.2055H76.9487V28.7866C87.5811 29.0964 97.5849 31.9115 106.388 36.692L101.481 45.2451L104.851 47.2037L109.758 38.6592C118.503 44.1013 125.892 51.5351 131.303 60.3332L122.811 65.2656L124.758 68.6585L133.26 63.7212C138.011 72.5753 140.81 82.6395 141.118 93.3304H122.808L122.804 97.2494L141.118 97.2476C140.81 107.942 138.011 118.006 133.258 126.86L124.758 121.927L122.811 125.316L131.303 130.248C125.892 139.046 118.501 146.478 109.756 151.921L104.851 143.381L101.481 145.34L106.388 153.89C97.5849 158.67 87.5811 161.484 76.9487 161.795V143.376H73.0545V161.793C62.4225 161.484 52.4169 158.668 43.614 153.886L48.5192 145.338L45.1491 143.38L40.2494 151.919C31.502 146.477 24.1133 139.043 18.7011 130.245L27.1888 125.313L25.2417 121.923L16.7453 126.857C11.9926 118.006 9.19392 107.942 8.88584 97.2476L27.1958 97.2494L27.1923 93.3304L8.88584 93.3322C9.19392 82.6395 11.9926 72.5753 16.7453 63.7212L25.2417 68.6549L27.1888 65.2638L18.6994 60.3368C24.1115 51.5369 31.5002 44.103 40.2476 38.6592Z" fill="black"/>
<path d="M70.509 9.02374V23.9129H79.491V9.02374H70.509Z" fill="black"/>
<path d="M98.3533 0H52.0958C49.6154 0 47.6048 2.02003 47.6048 4.51187C47.6048 7.00369 49.6154 9.02375 52.0958 9.02375H98.3533C100.834 9.02375 102.844 7.00369 102.844 4.51187C102.844 2.02003 100.834 0 98.3533 0Z" fill="black"/>
<path d="M50.2181 86.8551C49.0987 87.2602 47.8059 87.4631 46.3411 87.4631C44.9008 87.4631 43.6585 87.1877 42.6146 86.6363C41.5707 86.079 40.7715 85.2899 40.2183 84.2703C39.6709 83.2442 39.3974 82.0623 39.3974 80.726C39.3974 79.2877 39.706 78.008 40.3219 76.8869C40.9384 75.7652 41.8096 74.9007 42.9354 74.2927C44.0607 73.6782 45.3563 73.3709 46.8218 73.3709C47.9915 73.3709 49.1238 73.5136 50.2181 73.7985V77.5898C49.841 77.3616 49.3908 77.1847 48.8691 77.0579C48.3469 76.9311 47.8188 76.868 47.2843 76.868C46.1772 76.868 45.3031 77.1877 44.6614 77.8275C44.0262 78.4674 43.7088 79.3354 43.7088 80.4312C43.7088 81.521 44.0262 82.3826 44.6614 83.0159C45.3031 83.6428 46.1584 83.9565 47.2275 83.9565C48.2152 83.9565 49.2116 83.703 50.2181 83.1964V86.8551ZM62.6991 82.1891C62.6991 83.8298 62.2055 85.1189 61.2178 86.0566C60.2366 86.9942 58.8625 87.4631 57.0956 87.4631C55.3409 87.4631 53.9727 87.0066 52.9914 86.0949C52.0166 85.1761 51.5295 83.9123 51.5295 82.303C51.5295 81.2703 51.759 80.374 52.218 79.6138C52.677 78.8536 53.331 78.271 54.1805 77.8653C55.0294 77.4601 56.0072 77.2572 57.1143 77.2572C58.2589 77.2572 59.2495 77.4695 60.0861 77.8941C60.9286 78.3182 61.5732 78.9079 62.0199 79.6616C62.4725 80.4152 62.6991 81.258 62.6991 82.1891ZM58.6236 82.208C58.6236 80.8841 58.1207 80.2224 57.1143 80.2224C56.1079 80.2224 55.605 80.9159 55.605 82.303C55.605 83.7667 56.1143 84.4979 57.133 84.4979C58.1266 84.4979 58.6236 83.7348 58.6236 82.208ZM76.7269 87.2254V81.6189C76.7269 81.15 76.642 80.8015 76.4722 80.5739C76.3089 80.3392 76.0384 80.2224 75.6613 80.2224C75.2901 80.2224 75.0009 80.3645 74.7931 80.6499C74.5858 80.9283 74.4816 81.3181 74.4816 81.8188V87.2254H70.463V81.7138C70.463 80.7195 70.1263 80.2224 69.4536 80.2224C69.045 80.2224 68.7364 80.3681 68.5292 80.6594C68.3213 80.9442 68.2177 81.3559 68.2177 81.8943V87.2254H64.199V77.4949H68.2177V79.0341H68.2557C68.4062 78.7616 68.6457 78.4862 68.9724 78.2073C69.3061 77.9225 69.6802 77.6942 70.0953 77.5232C70.5104 77.3463 70.96 77.2572 71.4442 77.2572C72.1298 77.2572 72.7053 77.3935 73.1707 77.6659C73.642 77.9384 74.0355 78.3689 74.3499 78.958C74.6894 78.4137 75.142 77.9956 75.7082 77.7037C76.2743 77.4064 76.9031 77.2572 77.5951 77.2572C78.6074 77.2572 79.3843 77.5898 79.9253 78.2551C80.4663 78.9203 80.7367 79.8798 80.7367 81.1341V87.2254H76.7269ZM86.8121 74.8724C86.8121 75.4426 86.6043 75.905 86.1892 76.2594C85.7805 76.6144 85.2396 76.7919 84.5669 76.7919C83.9123 76.7919 83.3749 76.608 82.9533 76.2406C82.5382 75.8732 82.331 75.4173 82.331 74.8724C82.331 74.3145 82.5318 73.8651 82.9346 73.5231C83.3433 73.1746 83.8872 73 84.5669 73C85.2396 73 85.7805 73.1746 86.1892 73.5231C86.6043 73.8651 86.8121 74.3145 86.8121 74.8724ZM82.557 87.2254V77.4949H86.5762V87.2254H82.557ZM94.7833 87.2254V81.9137C94.7833 81.3116 94.692 80.8811 94.5099 80.621C94.3337 80.3551 94.0444 80.2224 93.6422 80.2224C93.2962 80.2224 93.0257 80.358 92.8308 80.6305C92.6358 80.9029 92.538 81.2515 92.538 81.6761V87.2254H88.5194V77.4949H92.538V79.0152H92.5761C92.8969 78.4579 93.3272 78.0268 93.8682 77.7231C94.4092 77.4123 94.997 77.2572 95.6322 77.2572C97.7458 77.2572 98.8019 78.6006 98.8019 81.2863V87.2254H94.7833ZM111.085 85.8667C111.085 87.7355 110.5 89.1892 109.33 90.2283C108.167 91.2733 106.466 91.7958 104.227 91.7958C103.623 91.7958 103.038 91.7486 102.472 91.6537C101.906 91.5587 101.5 91.4508 101.255 91.3305V88.1566C101.657 88.4102 102.129 88.613 102.67 88.7646C103.211 88.9168 103.692 88.9928 104.113 88.9928C105.013 88.9928 105.733 88.774 106.274 88.337C106.815 87.9001 107.085 87.3204 107.085 86.5985V85.9994H107.047C106.758 86.4428 106.359 86.7979 105.849 87.0638C105.346 87.3298 104.805 87.4631 104.227 87.4631C102.982 87.4631 101.997 87.029 101.274 86.161C100.551 85.287 100.189 84.0833 100.189 82.5501C100.189 81.4986 100.377 80.5703 100.755 79.7659C101.132 78.9616 101.657 78.3435 102.331 77.913C103.003 77.476 103.746 77.2572 104.557 77.2572C105.67 77.2572 106.5 77.6724 107.047 78.5022H107.085V77.4949H111.085V85.8667ZM107.151 82.0848C107.151 81.5145 107.022 81.0616 106.764 80.726C106.513 80.3899 106.176 80.2224 105.755 80.2224C105.302 80.2224 104.941 80.4247 104.67 80.8304C104.4 81.2355 104.264 81.7775 104.264 82.4551C104.264 83.0826 104.377 83.5797 104.604 83.9471C104.831 84.3145 105.189 84.4979 105.679 84.4979C106.138 84.4979 106.497 84.3116 106.755 83.9377C107.019 83.5573 107.151 83.0507 107.151 82.4174V82.0848ZM47.5717 109.169C47.5717 111.34 46.748 113.024 45.0999 114.222C43.4647 115.407 41.1796 116 38.2435 116C37.3887 116 36.3296 115.913 35.066 115.738C33.8148 115.564 32.7928 115.351 32 115.102V109.505C34.3413 110.554 36.2986 111.078 37.8717 111.078C39.4203 111.078 40.1943 110.672 40.1943 109.861C40.1943 109.524 40.0151 109.25 39.6556 109.038C39.2962 108.813 38.3547 108.445 36.8313 107.933C35.1465 107.396 33.9201 106.685 33.1521 105.799C32.384 104.914 32 103.76 32 102.337C32 100.353 32.7804 98.787 34.3413 97.6388C35.9146 96.4782 38.1194 95.8985 40.9565 95.8985C42.6163 95.8985 44.3757 96.1415 46.2334 96.628V102C45.4529 101.663 44.5982 101.382 43.6696 101.158C42.7405 100.933 41.96 100.821 41.3283 100.821C40.8078 100.821 40.3927 100.908 40.083 101.083C39.7733 101.257 39.6188 101.501 39.6188 101.813C39.6188 102.174 39.7856 102.468 40.1205 102.693C40.4548 102.917 41.1234 103.185 42.1269 103.497C44.0718 104.072 45.4658 104.808 46.3077 105.706C47.1502 106.604 47.5717 107.759 47.5717 109.169ZM71.672 105.613C71.672 108.844 70.6995 111.384 68.7546 113.23C66.8219 115.077 64.1153 116 60.6347 116C57.1781 116 54.4838 115.102 52.5511 113.305C50.6314 111.496 49.6712 109.006 49.6712 105.837C49.6712 103.803 50.1232 102.038 51.0278 100.54C51.9317 99.043 53.2203 97.8948 54.8924 97.0963C56.5651 96.2978 58.4913 95.8985 60.6716 95.8985C62.9262 95.8985 64.877 96.3161 66.5251 97.1523C68.1849 97.9885 69.4548 99.1485 70.3342 100.633C71.2258 102.118 71.672 103.778 71.672 105.613ZM63.6446 105.65C63.6446 103.042 62.6534 101.738 60.6716 101.738C58.6898 101.738 57.6986 103.104 57.6986 105.837C57.6986 108.719 58.7021 110.161 60.7091 110.161C62.6663 110.161 63.6446 108.657 63.6446 105.65ZM95.7909 105.613C95.7909 108.844 94.8184 111.384 92.8741 113.23C90.9415 115.077 88.2348 116 84.7536 116C81.2976 116 78.6033 115.102 76.6707 113.305C74.7503 111.496 73.7902 109.006 73.7902 105.837C73.7902 103.803 74.2427 102.038 75.1467 100.54C76.0513 99.043 77.3393 97.8948 79.012 97.0963C80.6841 96.2978 82.6102 95.8985 84.7905 95.8985C87.0452 95.8985 88.9965 96.3161 90.644 97.1523C92.3038 97.9885 93.5737 99.1485 94.4531 100.633C95.3453 102.118 95.7909 103.778 95.7909 105.613ZM87.7635 105.65C87.7635 103.042 86.7729 101.738 84.7905 101.738C82.8087 101.738 81.8175 103.104 81.8175 105.837C81.8175 108.719 82.821 110.161 84.828 110.161C86.7852 110.161 87.7635 108.657 87.7635 105.65ZM111.084 115.532V105.069C111.084 103.884 110.904 103.035 110.545 102.524C110.198 102 109.628 101.738 108.836 101.738C108.154 101.738 107.621 102.006 107.237 102.543C106.853 103.079 106.661 103.766 106.661 104.602V115.532H98.7457V96.3662H106.661V99.3608H106.736C107.367 98.2628 108.216 97.4141 109.281 96.8156C110.347 96.204 111.505 95.8985 112.756 95.8985C116.919 95.8985 119 98.5435 119 103.835V115.532H111.084Z" fill="black"/>
</svg>
