<svg width="28" height="28" viewBox="0 0 28 28" fill="none" xmlns="http://www.w3.org/2000/svg">
<path d="M15.1666 8.225V4.66667C15.1666 4.35725 15.2896 4.0605 15.5084 3.84171C15.7271 3.62292 16.0239 3.5 16.3333 3.5C16.6394 3.50129 16.9327 3.6228 17.15 3.83833L25.3166 12.005C25.426 12.1135 25.5128 12.2425 25.572 12.3847C25.6312 12.5268 25.6617 12.6793 25.6617 12.8333C25.6617 12.9873 25.6312 13.1398 25.572 13.282C25.5128 13.4242 25.426 13.5532 25.3166 13.6617L17.15 21.8283C16.9862 21.9889 16.7787 22.0976 16.5535 22.1409C16.3283 22.1842 16.0953 22.1601 15.8837 22.0717C15.6721 21.9833 15.4912 21.8345 15.3636 21.6439C15.2361 21.4533 15.1676 21.2293 15.1666 21V17.3833H14.175C12.3317 17.3558 10.5046 17.7298 8.82036 18.4792C7.13614 19.2287 5.63517 20.3357 4.42164 21.7233C4.2754 21.918 4.0719 22.0621 3.83967 22.1353C3.60744 22.2085 3.35812 22.2073 3.12664 22.1317C2.89109 22.0522 2.68708 21.8995 2.54437 21.6959C2.40167 21.4924 2.32772 21.2485 2.33331 21C2.33331 10.36 11.76 8.54 15.1666 8.225ZM14.175 15.0267C14.9553 15.0242 15.7349 15.0749 16.5083 15.1783C16.7845 15.2202 17.0365 15.3599 17.2185 15.5718C17.4005 15.7838 17.5003 16.054 17.5 16.3333V18.1883L22.8433 12.8333L17.5 7.47833V9.33333C17.5 9.64275 17.3771 9.9395 17.1583 10.1583C16.9395 10.3771 16.6427 10.5 16.3333 10.5C15.2716 10.5 6.87164 10.7333 5.05164 18.0017C7.69333 16.054 10.8929 15.0106 14.175 15.0267Z" fill="#165DB0"/>
</svg>
