<svg width="116" height="116" viewBox="0 0 116 116" fill="none" xmlns="http://www.w3.org/2000/svg">
<rect width="116" height="116" rx="10" fill="#EF4D26"/>
<path d="M38.528 28.244C39.8773 30.5747 41.38 33.4267 43.036 36.8C44.692 40.1733 46.3787 43.7307 48.096 47.472C49.8133 51.152 51.5 54.924 53.156 58.788C54.8733 62.5907 56.4373 66.1173 57.848 69.368C59.2587 66.1173 60.792 62.5907 62.448 58.788C64.104 54.924 65.7907 51.152 67.508 47.472C69.2253 43.7307 70.912 40.1733 72.568 36.8C74.224 33.4267 75.7267 30.5747 77.076 28.244H87.564C88.116 32.9053 88.6373 37.8733 89.128 43.148C89.6187 48.3613 90.048 53.728 90.416 59.248C90.8453 64.7067 91.2133 70.2267 91.52 75.808C91.888 81.328 92.1947 86.7253 92.44 92H81.032C80.7867 84.5787 80.48 76.9427 80.112 69.092C79.8053 61.2413 79.3147 53.636 78.64 46.276C77.9653 47.6867 77.168 49.3733 76.248 51.336C75.328 53.2987 74.3467 55.4453 73.304 57.776C72.2613 60.0453 71.188 62.4067 70.084 64.86C69.0413 67.3133 67.9987 69.7053 66.956 72.036C65.9747 74.3053 65.0547 76.452 64.196 78.476C63.3373 80.4387 62.6013 82.1253 61.988 83.536H53.34C52.7267 82.1253 51.9907 80.408 51.132 78.384C50.2733 76.36 49.3227 74.2133 48.28 71.944C47.2987 69.6133 46.256 67.2213 45.152 64.768C44.1093 62.3147 43.0667 59.9533 42.024 57.684C40.9813 55.4147 40 53.2987 39.08 51.336C38.16 49.312 37.3627 47.6253 36.688 46.276C36.0133 53.636 35.492 61.2413 35.124 69.092C34.8173 76.9427 34.5413 84.5787 34.296 92H22.888C23.1333 86.7253 23.4093 81.2667 23.716 75.624C24.084 69.9813 24.452 64.4 24.82 58.88C25.2493 53.2987 25.7093 47.9013 26.2 42.688C26.6907 37.4747 27.212 32.66 27.764 28.244H38.528Z" fill="white"/>
</svg>
