<svg width="165" height="47" viewBox="0 0 165 47" fill="none" xmlns="http://www.w3.org/2000/svg">
<path d="M50.7727 8.99247C50.6851 8.78134 50.5668 8.5131 50.4181 8.18753C50.2779 7.86196 50.1248 7.51022 49.9583 7.13187C49.7919 6.75352 49.6126 6.36652 49.4198 5.97064C49.236 5.5659 49.0609 5.18777 48.8945 4.83581C48.728 4.4752 48.5704 4.15395 48.4216 3.87251C48.2814 3.59108 48.1677 3.3754 48.0801 3.22592C47.9839 4.26406 47.9051 5.39003 47.8437 6.60404C47.7823 7.80918 47.7298 9.02774 47.6861 10.2593H46.4383C46.4734 9.46752 46.5128 8.67145 46.5565 7.87083C46.6002 7.06157 46.6484 6.26982 46.701 5.49559C46.7624 4.71272 46.8235 3.95169 46.8849 3.21273C46.9548 2.47376 47.0293 1.77439 47.1082 1.1146H48.2246C48.461 1.50167 48.7149 1.95913 48.9864 2.48696C49.2579 3.01479 49.5292 3.56901 49.8007 4.14963C50.0723 4.72137 50.3349 5.29766 50.5888 5.87827C50.8427 6.45001 51.0748 6.97352 51.2849 7.44857C51.4951 6.97352 51.7272 6.45001 51.9811 5.87827C52.2349 5.29766 52.4976 4.72137 52.7691 4.14963C53.0407 3.56901 53.312 3.01479 53.5835 2.48696C53.855 1.95913 54.1089 1.50167 54.3453 1.1146H55.4617C55.7595 4.06158 55.9828 7.1098 56.1316 10.2593H54.8838C54.8401 9.02774 54.7876 7.80918 54.7262 6.60404C54.6648 5.39003 54.586 4.26406 54.4898 3.22592C54.4021 3.3754 54.2839 3.59108 54.1351 3.87251C53.995 4.15395 53.8419 4.4752 53.6754 4.83581C53.509 5.18777 53.3296 5.5659 53.1369 5.97064C52.953 6.36652 52.778 6.75352 52.6115 7.13187C52.4451 7.51022 52.2875 7.86196 52.1387 8.18753C51.9985 8.5131 51.8848 8.78134 51.7972 8.99247H50.7727ZM57.2491 11.5393C57.3456 11.5832 57.4681 11.6228 57.6169 11.658C57.7745 11.7019 57.9278 11.724 58.0766 11.724C58.5583 11.724 58.9349 11.6141 59.2062 11.3941C59.4777 11.183 59.723 10.8356 59.9417 10.3516C59.3901 9.29598 58.8735 8.17866 58.3918 6.99991C57.919 5.81229 57.525 4.61148 57.2097 3.39747H58.5232C58.6197 3.79334 58.7333 4.21993 58.8647 4.67746C59.0049 5.13499 59.1582 5.60548 59.3244 6.0894C59.4908 6.57332 59.6704 7.05702 59.8629 7.54094C60.0556 8.02486 60.257 8.49103 60.4671 8.93969C60.8 8.01599 61.089 7.10116 61.334 6.19497C61.5792 5.28879 61.8114 4.35643 62.0301 3.39747H63.291C62.9758 4.69065 62.6257 5.93538 62.2403 7.13187C61.8551 8.31949 61.4391 9.43226 60.9925 10.4704C60.8174 10.8663 60.6336 11.205 60.4408 11.4865C60.257 11.7768 60.0513 12.0143 59.8235 12.199C59.5959 12.3838 59.3375 12.5201 59.0486 12.6081C58.7685 12.6962 58.4489 12.7401 58.0898 12.7401C57.9935 12.7401 57.8927 12.7312 57.7877 12.7137C57.6826 12.7048 57.5775 12.6873 57.4724 12.6609C57.3762 12.6434 57.2842 12.6213 57.1966 12.5949C57.1178 12.5685 57.061 12.5465 57.0259 12.5289L57.2491 11.5393ZM73.7792 1.1146V2.22304H70.9159V10.2593H69.6418V2.22304H66.7785V1.1146H73.7792ZM77.0417 3.25231C77.1468 3.25231 77.265 3.26119 77.3964 3.2787C77.5366 3.28758 77.6722 3.3051 77.8036 3.33149C77.9349 3.34901 78.0531 3.37107 78.1582 3.39747C78.2721 3.41498 78.3552 3.43273 78.4077 3.45025L78.1976 4.51911C78.1013 4.48384 77.9392 4.44426 77.7116 4.40035C77.4926 4.34756 77.2082 4.32117 76.8579 4.32117C76.6303 4.32117 76.4025 4.34756 76.1749 4.40035C75.9559 4.44426 75.8114 4.4752 75.7414 4.49272V10.2593H74.5199V3.68777C74.8089 3.58221 75.1678 3.48551 75.597 3.39747C76.0261 3.30077 76.5075 3.25231 77.0417 3.25231ZM79.2055 6.84156C79.2055 6.23456 79.2932 5.70673 79.4682 5.25807C79.6433 4.80054 79.8754 4.42241 80.1644 4.12323C80.4533 3.82405 80.786 3.59973 81.1626 3.45025C81.5392 3.30077 81.9244 3.22592 82.3184 3.22592C83.2379 3.22592 83.9428 3.51623 84.4331 4.09684C84.9234 4.66858 85.1686 5.54406 85.1686 6.7228C85.1686 6.77559 85.1686 6.84589 85.1686 6.93393C85.1686 7.01311 85.1643 7.08796 85.1555 7.15826H80.4796C80.5321 7.87083 80.738 8.41186 81.0969 8.78134C81.4559 9.15082 82.0163 9.33557 82.7781 9.33557C83.2073 9.33557 83.5662 9.3003 83.8552 9.23C84.153 9.15082 84.3763 9.07597 84.525 9.00567L84.6958 10.0349C84.547 10.1141 84.2843 10.1976 83.9077 10.2857C83.5399 10.3737 83.1196 10.4176 82.6468 10.4176C82.0514 10.4176 81.5347 10.3296 81.0969 10.1537C80.6678 9.96896 80.3131 9.71824 80.033 9.40154C79.7529 9.08484 79.5427 8.71104 79.4026 8.2799C79.2712 7.84012 79.2055 7.36052 79.2055 6.84156ZM83.8946 6.16858C83.9034 5.61436 83.7632 5.16138 83.4743 4.80941C83.1941 4.44881 82.8044 4.26839 82.3053 4.26839C82.0252 4.26839 81.7756 4.32549 81.5566 4.43993C81.3465 4.5455 81.1669 4.68633 81.0181 4.8622C80.8693 5.03807 80.7511 5.24055 80.6635 5.4692C80.5847 5.69785 80.5321 5.93105 80.5059 6.16858H83.8946ZM86.9232 3.5954C87.2036 3.5251 87.5756 3.45025 88.0397 3.37107C88.5039 3.2919 89.0379 3.25231 89.6421 3.25231C90.1851 3.25231 90.636 3.33149 90.9949 3.48984C91.3541 3.63931 91.6385 3.855 91.8487 4.13643C92.0677 4.40922 92.221 4.73911 92.3084 5.12611C92.396 5.51311 92.4397 5.93993 92.4397 6.4061V10.2593H91.2182V6.67002C91.2182 6.24775 91.1876 5.88715 91.1263 5.58797C91.0737 5.28879 90.9818 5.04694 90.8504 4.8622C90.7191 4.67746 90.544 4.5455 90.3251 4.46632C90.1063 4.37828 89.8348 4.33437 89.5107 4.33437C89.3794 4.33437 89.2437 4.33869 89.1035 4.34756C88.9636 4.35644 88.8277 4.36963 88.6964 4.38715C88.5739 4.39602 88.46 4.40922 88.3549 4.42674C88.2586 4.44426 88.1887 4.45745 88.1447 4.46632V10.2593H86.9232V3.5954ZM98.8786 4.849C98.7298 4.72592 98.5153 4.60715 98.235 4.49272C97.9549 4.37828 97.6485 4.32117 97.3156 4.32117C96.9655 4.32117 96.6634 4.38715 96.4093 4.51911C96.1643 4.64219 95.9627 4.81829 95.8051 5.04694C95.6475 5.26694 95.5338 5.53086 95.4636 5.83868C95.3936 6.14651 95.3585 6.4764 95.3585 6.82837C95.3585 7.62899 95.5555 8.24919 95.9496 8.68897C96.3436 9.12011 96.869 9.33557 97.5257 9.33557C97.8586 9.33557 98.1344 9.32237 98.3532 9.29598C98.581 9.26071 98.7561 9.22568 98.8786 9.19041V4.849ZM98.8786 0.230481L100.1 0.0193481V10.0613C99.82 10.1405 99.461 10.2197 99.0231 10.2989C98.5853 10.378 98.0819 10.4176 97.5126 10.4176C96.9872 10.4176 96.5144 10.3341 96.0941 10.1669C95.6738 9.99967 95.3148 9.76215 95.017 9.45433C94.7195 9.1465 94.4874 8.77247 94.3209 8.33269C94.1633 7.88403 94.0845 7.38259 94.0845 6.82837C94.0845 6.30054 94.1502 5.81662 94.2815 5.37683C94.4217 4.93705 94.623 4.5587 94.8857 4.242C95.1484 3.9253 95.4681 3.6789 95.8445 3.50303C96.2299 3.32717 96.6677 3.23912 97.158 3.23912C97.552 3.23912 97.898 3.2919 98.1956 3.39747C98.5022 3.50303 98.7298 3.60428 98.8786 3.70097V0.230481ZM103.421 10.2593H102.2V3.39747H103.421V10.2593ZM102.804 2.15706C102.585 2.15706 102.397 2.08669 102.239 1.94593C102.09 1.79639 102.016 1.59845 102.016 1.35212C102.016 1.10579 102.09 0.91227 102.239 0.771507C102.397 0.621963 102.585 0.547179 102.804 0.547179C103.023 0.547179 103.207 0.621963 103.356 0.771507C103.513 0.91227 103.592 1.10579 103.592 1.35212C103.592 1.59845 103.513 1.79639 103.356 1.94593C103.207 2.08669 103.023 2.15706 102.804 2.15706ZM105.522 3.5954C105.802 3.5251 106.174 3.45025 106.638 3.37107C107.103 3.2919 107.637 3.25231 108.241 3.25231C108.784 3.25231 109.235 3.33149 109.594 3.48984C109.953 3.63931 110.237 3.855 110.447 4.13643C110.666 4.40922 110.82 4.73911 110.907 5.12611C110.995 5.51311 111.038 5.93993 111.038 6.4061V10.2593H109.817V6.67002C109.817 6.24775 109.786 5.88715 109.725 5.58797C109.672 5.28879 109.581 5.04694 109.449 4.8622C109.318 4.67746 109.143 4.5455 108.924 4.46632C108.705 4.37828 108.434 4.33437 108.109 4.33437C107.978 4.33437 107.842 4.33869 107.702 4.34756C107.562 4.35644 107.426 4.36963 107.295 4.38715C107.173 4.39602 107.059 4.40922 106.954 4.42674C106.857 4.44426 106.787 4.45745 106.743 4.46632V10.2593H105.522V3.5954ZM117.346 9.57309C117.241 9.64339 117.035 9.73576 116.729 9.8502C116.431 9.95576 116.081 10.0085 115.678 10.0085C115.266 10.0085 114.877 9.94257 114.509 9.81061C114.15 9.67865 113.835 9.4764 113.563 9.20361C113.292 8.92217 113.077 8.57453 112.92 8.16114C112.762 7.74775 112.683 7.25495 112.683 6.68321C112.683 6.18177 112.758 5.72425 112.906 5.31085C113.055 4.88859 113.27 4.52798 113.55 4.2288C113.839 3.92098 114.189 3.68345 114.601 3.51623C115.012 3.34036 115.477 3.25231 115.993 3.25231C116.562 3.25231 117.057 3.29622 117.477 3.38427C117.906 3.46345 118.265 3.5383 118.554 3.6086V9.73144C118.554 10.7871 118.283 11.5525 117.74 12.0275C117.197 12.5026 116.374 12.7401 115.271 12.7401C114.842 12.7401 114.434 12.7048 114.049 12.6345C113.673 12.5642 113.344 12.4805 113.064 12.3838L113.287 11.3149C113.533 11.4116 113.83 11.4953 114.181 11.5657C114.539 11.6448 114.912 11.6844 115.297 11.6844C116.024 11.6844 116.545 11.5393 116.86 11.249C117.184 10.9586 117.346 10.4968 117.346 9.86339V9.57309ZM117.333 4.47952C117.21 4.44426 117.044 4.41354 116.834 4.38715C116.632 4.35189 116.357 4.33437 116.006 4.33437C115.35 4.33437 114.842 4.54982 114.483 4.98096C114.132 5.4121 113.957 5.98384 113.957 6.69641C113.957 7.09228 114.005 7.43105 114.102 7.71248C114.207 7.99392 114.342 8.22712 114.509 8.41186C114.684 8.5966 114.881 8.73288 115.1 8.82093C115.328 8.90898 115.56 8.95289 115.796 8.95289C116.12 8.95289 116.418 8.90898 116.689 8.82093C116.961 8.72424 117.175 8.61412 117.333 8.49103V4.47952ZM125.891 9.34876C127.222 9.34876 127.887 8.89123 127.887 7.9764C127.887 7.69497 127.826 7.45744 127.703 7.26383C127.59 7.06157 127.432 6.89002 127.231 6.74919C127.029 6.59972 126.797 6.47208 126.534 6.36652C126.281 6.26095 126.009 6.15538 125.72 6.04982C125.387 5.93538 125.072 5.80797 124.774 5.66714C124.477 5.51766 124.218 5.34612 123.999 5.1525C123.781 4.95025 123.605 4.71272 123.474 4.43993C123.352 4.16714 123.29 3.83725 123.29 3.45025C123.29 2.6497 123.562 2.02511 124.105 1.57645C124.647 1.12779 125.396 0.903465 126.351 0.903465C126.902 0.903465 127.401 0.965054 127.848 1.08821C128.303 1.20258 128.636 1.33012 128.846 1.47088L128.439 2.51335C128.255 2.39898 127.979 2.28902 127.611 2.18346C127.253 2.06908 126.832 2.01191 126.351 2.01191C126.105 2.01191 125.878 2.0383 125.668 2.09109C125.457 2.14387 125.274 2.22304 125.116 2.32861C124.958 2.43418 124.831 2.57052 124.735 2.73768C124.647 2.89603 124.604 3.08509 124.604 3.3051C124.604 3.55149 124.652 3.75808 124.748 3.9253C124.844 4.09252 124.98 4.242 125.155 4.37395C125.33 4.49704 125.532 4.61148 125.76 4.71704C125.996 4.82261 126.254 4.92818 126.534 5.03374C126.929 5.19209 127.287 5.35044 127.611 5.50879C127.944 5.66714 128.229 5.8562 128.465 6.07621C128.71 6.29621 128.899 6.56013 129.03 6.86796C129.161 7.16714 129.227 7.53207 129.227 7.9632C129.227 8.76382 128.934 9.37947 128.347 9.81061C127.769 10.2417 126.95 10.4572 125.891 10.4572C125.532 10.4572 125.199 10.4308 124.893 10.378C124.595 10.3341 124.328 10.2813 124.091 10.2197C123.855 10.1494 123.649 10.0788 123.474 10.0085C123.308 9.92937 123.176 9.8634 123.08 9.81061L123.461 8.75495C123.662 8.86939 123.969 8.9968 124.38 9.13763C124.792 9.27846 125.296 9.34876 125.891 9.34876ZM131.831 3.39747H134.418V4.42674H131.831V7.59372C131.831 7.93681 131.857 8.2228 131.909 8.45145C131.962 8.67145 132.041 8.84732 132.146 8.97928C132.251 9.10236 132.382 9.19041 132.54 9.24319C132.698 9.29598 132.881 9.32237 133.092 9.32237C133.459 9.32237 133.753 9.28278 133.972 9.20361C134.199 9.11556 134.357 9.05413 134.444 9.01887L134.681 10.0349C134.558 10.0966 134.344 10.1712 134.037 10.2593C133.731 10.356 133.38 10.4044 132.986 10.4044C132.522 10.4044 132.137 10.3473 131.831 10.2329C131.533 10.1098 131.292 9.92937 131.108 9.69185C130.924 9.45433 130.793 9.16402 130.714 8.82093C130.644 8.46897 130.609 8.06445 130.609 7.60692V1.48408L131.831 1.27295V3.39747ZM141.822 6.82837C141.822 7.37372 141.743 7.86651 141.585 8.30629C141.428 8.74608 141.204 9.12443 140.915 9.44113C140.635 9.75783 140.298 10.0042 139.904 10.1801C139.51 10.3473 139.081 10.4308 138.617 10.4308C138.153 10.4308 137.724 10.3473 137.33 10.1801C136.936 10.0042 136.594 9.75783 136.305 9.44113C136.025 9.12443 135.806 8.74608 135.648 8.30629C135.491 7.86651 135.412 7.37372 135.412 6.82837C135.412 6.29166 135.491 5.80342 135.648 5.36364C135.806 4.91498 136.025 4.5323 136.305 4.2156C136.594 3.89891 136.936 3.65706 137.33 3.48984C137.724 3.31397 138.153 3.22592 138.617 3.22592C139.081 3.22592 139.51 3.31397 139.904 3.48984C140.298 3.65706 140.635 3.89891 140.915 4.2156C141.204 4.5323 141.428 4.91498 141.585 5.36364C141.743 5.80342 141.822 6.29166 141.822 6.82837ZM140.548 6.82837C140.548 6.05414 140.373 5.44281 140.022 4.99416C139.681 4.53663 139.212 4.30798 138.617 4.30798C138.022 4.30798 137.549 4.53663 137.198 4.99416C136.857 5.44281 136.686 6.05414 136.686 6.82837C136.686 7.6026 136.857 8.21825 137.198 8.67578C137.549 9.12443 138.022 9.34876 138.617 9.34876C139.212 9.34876 139.681 9.12443 140.022 8.67578C140.373 8.21825 140.548 7.6026 140.548 6.82837ZM146.062 3.25231C146.167 3.25231 146.285 3.26119 146.417 3.2787C146.557 3.28758 146.693 3.3051 146.824 3.33149C146.955 3.34901 147.073 3.37107 147.179 3.39747C147.292 3.41498 147.376 3.43273 147.428 3.45025L147.218 4.51911C147.122 4.48384 146.96 4.44426 146.732 4.40035C146.513 4.34756 146.229 4.32117 145.878 4.32117C145.651 4.32117 145.423 4.34756 145.195 4.40035C144.976 4.44426 144.832 4.4752 144.762 4.49272V10.2593H143.54V3.68777C143.829 3.58221 144.188 3.48551 144.617 3.39747C145.046 3.30077 145.528 3.25231 146.062 3.25231ZM149.828 10.2593H148.607V3.39747H149.828V10.2593ZM149.211 2.15706C148.992 2.15706 148.804 2.08669 148.646 1.94593C148.497 1.79639 148.423 1.59845 148.423 1.35212C148.423 1.10579 148.497 0.91227 148.646 0.771507C148.804 0.621963 148.992 0.547179 149.211 0.547179C149.43 0.547179 149.614 0.621963 149.763 0.771507C149.92 0.91227 149.999 1.10579 149.999 1.35212C149.999 1.59845 149.92 1.79639 149.763 1.94593C149.614 2.08669 149.43 2.15706 149.211 2.15706ZM151.548 6.84156C151.548 6.23456 151.636 5.70673 151.811 5.25807C151.986 4.80054 152.218 4.42241 152.507 4.12323C152.796 3.82405 153.129 3.59973 153.505 3.45025C153.882 3.30077 154.267 3.22592 154.661 3.22592C155.58 3.22592 156.285 3.51623 156.776 4.09684C157.266 4.66858 157.511 5.54406 157.511 6.7228C157.511 6.77559 157.511 6.84589 157.511 6.93393C157.511 7.01311 157.507 7.08796 157.498 7.15826H152.822C152.875 7.87083 153.08 8.41186 153.439 8.78134C153.799 9.15082 154.359 9.33557 155.121 9.33557C155.55 9.33557 155.909 9.3003 156.198 9.23C156.495 9.15082 156.719 9.07597 156.868 9.00567L157.038 10.0349C156.89 10.1141 156.627 10.1976 156.25 10.2857C155.882 10.3737 155.462 10.4176 154.989 10.4176C154.394 10.4176 153.877 10.3296 153.439 10.1537C153.011 9.96896 152.656 9.71824 152.376 9.40154C152.095 9.08484 151.885 8.71104 151.745 8.2799C151.614 7.84012 151.548 7.36052 151.548 6.84156ZM156.237 6.16858C156.246 5.61436 156.106 5.16138 155.817 4.80941C155.537 4.44881 155.147 4.26839 154.648 4.26839C154.368 4.26839 154.118 4.32549 153.899 4.43993C153.689 4.5455 153.51 4.68633 153.361 4.8622C153.212 5.03807 153.094 5.24055 153.006 5.4692C152.927 5.69785 152.875 5.93105 152.848 6.16858H156.237ZM160.855 9.37515C161.354 9.37515 161.722 9.30917 161.959 9.17722C162.204 9.04526 162.326 8.83413 162.326 8.54382C162.326 8.24464 162.208 8.00711 161.972 7.83125C161.735 7.65538 161.345 7.45744 160.803 7.23744C160.54 7.13187 160.286 7.0263 160.041 6.92074C159.804 6.8063 159.599 6.67434 159.424 6.52486C159.248 6.37539 159.108 6.19497 159.003 5.98384C158.898 5.77271 158.846 5.51311 158.846 5.20529C158.846 4.59828 159.069 4.11891 159.515 3.76695C159.962 3.40634 160.571 3.22592 161.341 3.22592C161.534 3.22592 161.726 3.23912 161.919 3.26551C162.112 3.28303 162.291 3.30942 162.458 3.34468C162.624 3.37108 162.768 3.40179 162.891 3.43705C163.022 3.47232 163.123 3.50303 163.193 3.52942L162.97 4.58509C162.839 4.51478 162.633 4.44426 162.353 4.37395C162.072 4.29478 161.735 4.25519 161.341 4.25519C161 4.25519 160.702 4.32549 160.448 4.46632C160.194 4.59828 160.067 4.80941 160.067 5.09972C160.067 5.2492 160.093 5.38115 160.146 5.49559C160.207 5.61003 160.295 5.7156 160.409 5.81229C160.531 5.90034 160.68 5.98384 160.855 6.06301C161.03 6.14219 161.24 6.22568 161.486 6.31373C161.81 6.43682 162.098 6.56013 162.353 6.68321C162.606 6.79765 162.821 6.93393 162.996 7.09228C163.18 7.25063 163.32 7.44425 163.416 7.6729C163.513 7.8929 163.561 8.16546 163.561 8.49103C163.561 9.12443 163.325 9.6038 162.852 9.92937C162.387 10.2549 161.722 10.4176 160.855 10.4176C160.251 10.4176 159.778 10.3648 159.437 10.2593C159.095 10.1626 158.863 10.0877 158.741 10.0349L158.964 8.97928C159.104 9.03206 159.327 9.11124 159.634 9.2168C159.94 9.32237 160.347 9.37515 160.855 9.37515Z" fill="#FF4020"/>
<path d="M34.7169 45.5238C34.1209 43.7701 33.5035 42.0378 32.8649 40.3269C32.2263 38.616 31.609 36.8624 31.013 35.0659H12.3655C11.7695 36.8624 11.1522 38.6374 10.5136 40.3911C9.91754 42.102 9.3215 43.8129 8.72547 45.5238H0.35968C2.02007 40.7761 3.5953 36.3919 5.08539 32.3713C6.57548 28.3506 8.023 24.5439 9.42794 20.951C10.8755 17.3581 12.3017 13.9363 13.7066 10.6856C15.1116 7.4349 16.5591 4.22696 18.0492 1.0618H25.6486C27.1387 4.22696 28.5862 7.4349 29.9912 10.6856C31.3961 13.9363 32.8011 17.3581 34.206 20.951C35.6535 24.5439 37.1223 28.3506 38.6124 32.3713C40.1451 36.3919 41.7416 40.7761 43.402 45.5238H34.7169ZM21.6892 9.65907C20.71 11.926 19.5818 14.6848 18.3046 17.9355C17.07 21.1863 15.7715 24.715 14.4091 28.5217H28.9694C27.607 24.715 26.2872 21.1649 25.01 17.8714C23.7328 14.5779 22.6259 11.8405 21.6892 9.65907ZM58.6265 23.4832C56.0095 23.4832 54.004 24.3064 52.61 25.9527C51.2404 27.5744 50.5555 29.8349 50.5555 32.7344C50.5555 34.1104 50.7145 35.3758 51.0325 36.5307C51.3749 37.6609 51.864 38.6315 52.4999 39.4424C53.1603 40.2532 53.9674 40.8921 54.9212 41.3589C55.8995 41.8012 57.0368 42.0224 58.333 42.0224C59.1401 42.0224 59.8371 41.9978 60.4241 41.9487C61.0111 41.875 61.4758 41.7889 61.8182 41.6907V32.5132H66.4406V44.7867C65.8047 45.0324 64.7286 45.3027 63.2122 45.5975C61.6959 45.8924 59.9472 46.0398 57.9661 46.0398C56.1318 46.0398 54.4565 45.7449 52.9401 45.1552C51.4238 44.5655 50.1275 43.7055 49.0514 42.5752C47.9997 41.445 47.1804 40.0567 46.5934 38.4104C46.0065 36.7641 45.713 34.8721 45.713 32.7344C45.713 30.5967 46.0309 28.7047 46.6668 27.0584C47.3272 25.4121 48.2199 24.0238 49.3449 22.8935C50.4699 21.7387 51.7906 20.8664 53.307 20.2767C54.8234 19.6869 56.4376 19.3921 58.1496 19.3921C59.3235 19.3921 60.363 19.4781 61.2679 19.6501C62.1973 19.7975 62.9921 19.9695 63.6525 20.1661C64.3128 20.3627 64.8509 20.5715 65.2667 20.7927C65.7069 21.0138 66.0126 21.1735 66.1838 21.2718L64.7897 25.0681C64.056 24.6258 63.1389 24.2572 62.0383 23.9624C60.9622 23.6429 59.8249 23.4832 58.6265 23.4832ZM71.7828 45.5238V19.9818H88.1081V23.9255H76.4052V30.2281H86.8241V34.0981H76.4052V41.5801H88.9885V45.5238H71.7828ZM110.411 45.5238C109.579 44.1232 108.65 42.6244 107.623 41.0272C106.596 39.4055 105.532 37.7838 104.431 36.1621C103.331 34.5158 102.205 32.9309 101.056 31.4075C99.931 29.8595 98.8548 28.4712 97.8276 27.2427V45.5238H93.2785V19.9818H97.0572C98.0355 21.0138 99.0872 22.2424 100.212 23.6675C101.337 25.0681 102.462 26.5301 103.587 28.0535C104.737 29.5769 105.837 31.1127 106.889 32.6607C107.965 34.1841 108.919 35.6092 109.751 36.9361V19.9818H114.336V45.5238H110.411ZM131.734 46.0767C129.827 46.0767 128.114 45.7818 126.598 45.1921C125.082 44.6024 123.798 43.7424 122.746 42.6121C121.694 41.4572 120.887 40.0567 120.325 38.4104C119.762 36.7641 119.481 34.8721 119.481 32.7344C119.481 30.5967 119.799 28.7047 120.435 27.0584C121.095 25.4121 121.988 24.0238 123.113 22.8935C124.238 21.7387 125.559 20.8664 127.075 20.2767C128.591 19.6869 130.218 19.3921 131.954 19.3921C133.006 19.3921 133.96 19.4781 134.816 19.6501C135.672 19.7975 136.418 19.9695 137.054 20.1661C137.69 20.3627 138.215 20.5715 138.631 20.7927C139.047 21.0138 139.34 21.1735 139.512 21.2718L138.154 25.0681C137.567 24.6995 136.723 24.3555 135.623 24.0361C134.547 23.6921 133.373 23.5201 132.101 23.5201C131 23.5201 129.973 23.7167 129.019 24.1098C128.066 24.4784 127.234 25.0435 126.525 25.8052C125.84 26.5669 125.302 27.5252 124.911 28.6801C124.519 29.8349 124.324 31.1741 124.324 32.6975C124.324 34.0489 124.47 35.2898 124.764 36.4201C125.082 37.5504 125.559 38.5332 126.195 39.3687C126.83 40.1795 127.638 40.8184 128.616 41.2852C129.594 41.7275 130.768 41.9487 132.138 41.9487C133.776 41.9487 135.109 41.7889 136.137 41.4695C137.164 41.1255 137.959 40.8061 138.521 40.5112L139.768 44.3075C139.475 44.5041 139.071 44.7007 138.558 44.8972C138.069 45.0938 137.482 45.2904 136.797 45.4869C136.112 45.659 135.342 45.7941 134.486 45.8924C133.63 46.0152 132.712 46.0767 131.734 46.0767ZM152.915 31.2969C154.015 29.4541 155.091 27.5867 156.143 25.6947C157.195 23.8027 158.149 21.8984 159.005 19.9818H164.141C162.771 22.5864 161.34 25.1787 159.848 27.7587C158.381 30.3141 156.803 32.8941 155.116 35.4987V45.5238H150.493V35.5724C148.806 32.9432 147.216 30.3387 145.724 27.7587C144.232 25.1787 142.802 22.5864 141.432 19.9818H146.862C147.718 21.8984 148.659 23.8027 149.686 25.6947C150.714 27.5867 151.79 29.4541 152.915 31.2969Z" fill="#FF4020"/>
</svg>
