<svg width="28" height="29" viewBox="0 0 28 29" fill="none" xmlns="http://www.w3.org/2000/svg">
<g clip-path="url(#clip0)">
<path d="M25.523 1.58508H5.69587C5.35304 1.58548 5.02437 1.72472 4.78195 1.97227C4.53954 2.21981 4.40318 2.55544 4.40279 2.90553V3.34567H3.97177C3.62894 3.34607 3.30027 3.48531 3.05785 3.73286C2.81544 3.9804 2.67908 4.31603 2.67869 4.66612V5.10626H2.24767C1.90484 5.10666 1.57616 5.2459 1.33375 5.49345C1.09133 5.74099 0.954975 6.07663 0.95459 6.42671V26.6735C0.954975 27.0236 1.09133 27.3592 1.33375 27.6068C1.57616 27.8543 1.90484 27.9936 2.24767 27.9939H22.0748C22.4177 27.9936 22.7463 27.8543 22.9888 27.6068C23.2312 27.3592 23.3675 27.0236 23.3679 26.6735V26.2334H23.7989C24.1418 26.233 24.4704 26.0937 24.7129 25.8462C24.9553 25.5986 25.0916 25.263 25.092 24.9129V24.4728H25.523C25.8659 24.4724 26.1945 24.3331 26.437 24.0856C26.6794 23.838 26.8157 23.5024 26.8161 23.1523V2.90553C26.8157 2.55544 26.6794 2.21981 26.437 1.97227C26.1945 1.72472 25.8659 1.58548 25.523 1.58508ZM22.5059 26.6735C22.5057 26.7902 22.4603 26.9021 22.3795 26.9846C22.2987 27.0671 22.1891 27.1135 22.0748 27.1137H2.24767C2.13339 27.1135 2.02383 27.0671 1.94303 26.9846C1.86222 26.9021 1.81677 26.7902 1.81664 26.6735V6.42671C1.81677 6.31001 1.86222 6.19814 1.94303 6.11562C2.02383 6.03311 2.13339 5.98669 2.24767 5.98656H2.67869V24.9129C2.67908 25.263 2.81544 25.5986 3.05785 25.8462C3.30027 26.0937 3.62894 26.233 3.97177 26.2334H22.5059V26.6735ZM24.23 24.9129C24.2298 25.0296 24.1844 25.1415 24.1036 25.224C24.0228 25.3065 23.9132 25.3529 23.7989 25.3531H3.97177C3.85749 25.3529 3.74793 25.3065 3.66713 25.224C3.58632 25.1415 3.54087 25.0296 3.54074 24.9129V4.66612C3.54087 4.54942 3.58632 4.43755 3.66713 4.35503C3.74793 4.27252 3.85749 4.2261 3.97177 4.22597H4.40279V23.1523C4.40318 23.5024 4.53954 23.838 4.78195 24.0856C5.02437 24.3331 5.35304 24.4724 5.69587 24.4728H24.23V24.9129ZM25.9541 23.1523C25.9539 23.269 25.9085 23.3809 25.8277 23.4634C25.7469 23.5459 25.6373 23.5923 25.523 23.5925H5.69587C5.58159 23.5923 5.47204 23.5459 5.39123 23.4634C5.31043 23.3809 5.26497 23.269 5.26485 23.1523V2.90553C5.26497 2.78883 5.31043 2.67695 5.39123 2.59444C5.47204 2.51192 5.58159 2.46551 5.69587 2.46538H25.523C25.6373 2.46551 25.7469 2.51192 25.8277 2.59444C25.9085 2.67695 25.9539 2.78883 25.9541 2.90553V23.1523Z" fill="white"/>
<path d="M6.12793 6.86769H25.0931V7.74799H6.12793V6.86769Z" fill="white"/>
<path d="M13.4552 3.34651C13.1994 3.34651 12.9494 3.42395 12.7368 3.56905C12.5241 3.71414 12.3584 3.92036 12.2605 4.16164C12.1627 4.40292 12.1371 4.66842 12.187 4.92456C12.2368 5.1807 12.36 5.41598 12.5408 5.60065C12.7217 5.78531 12.9521 5.91107 13.2029 5.96202C13.4538 6.01297 13.7138 5.98682 13.95 5.88688C14.1863 5.78694 14.3883 5.6177 14.5303 5.40055C14.6724 5.18341 14.7483 4.92811 14.7483 4.66695C14.7479 4.31687 14.6115 3.98124 14.3691 3.73369C14.1267 3.48615 13.798 3.34691 13.4552 3.34651ZM13.4552 5.1071C13.3699 5.1071 13.2866 5.08129 13.2157 5.03292C13.1448 4.98456 13.0896 4.91582 13.057 4.83539C13.0244 4.75496 13.0158 4.66647 13.0324 4.58109C13.0491 4.4957 13.0901 4.41728 13.1504 4.35572C13.2107 4.29417 13.2875 4.25225 13.3711 4.23526C13.4547 4.21828 13.5414 4.227 13.6201 4.26031C13.6989 4.29362 13.7662 4.35004 13.8136 4.42242C13.8609 4.4948 13.8862 4.5799 13.8862 4.66695C13.8861 4.78365 13.8406 4.89552 13.7598 4.97804C13.679 5.06055 13.5695 5.10697 13.4552 5.1071Z" fill="white"/>
<path d="M10.4381 5.98738C10.6938 5.98738 10.9438 5.90994 11.1565 5.76485C11.3691 5.61976 11.5349 5.41353 11.6327 5.17225C11.7306 4.93097 11.7562 4.66548 11.7063 4.40933C11.6564 4.15319 11.5333 3.91791 11.3524 3.73325C11.1716 3.54858 10.9412 3.42282 10.6904 3.37187C10.4395 3.32092 10.1795 3.34707 9.94326 3.44701C9.70698 3.54695 9.50503 3.7162 9.36294 3.93334C9.22086 4.15049 9.14502 4.40578 9.14502 4.66694C9.1454 5.01702 9.28176 5.35265 9.52418 5.6002C9.76659 5.84775 10.0953 5.98699 10.4381 5.98738ZM10.4381 4.22679C10.5233 4.22679 10.6067 4.25261 10.6776 4.30097C10.7484 4.34934 10.8037 4.41808 10.8363 4.4985C10.8689 4.57893 10.8775 4.66743 10.8608 4.75281C10.8442 4.83819 10.8032 4.91662 10.7429 4.97817C10.6826 5.03973 10.6058 5.08165 10.5222 5.09863C10.4386 5.11561 10.3519 5.1069 10.2732 5.07358C10.1944 5.04027 10.1271 4.98386 10.0797 4.91147C10.0323 4.83909 10.0071 4.75399 10.0071 4.66694C10.0072 4.55025 10.0527 4.43837 10.1335 4.35585C10.2143 4.27334 10.3238 4.22692 10.4381 4.22679Z" fill="white"/>
<path d="M7.421 5.98738C7.67675 5.98738 7.92675 5.90994 8.1394 5.76485C8.35204 5.61976 8.51778 5.41353 8.61565 5.17225C8.71352 4.93097 8.73913 4.66548 8.68923 4.40933C8.63934 4.15319 8.51619 3.91791 8.33535 3.73325C8.15451 3.54858 7.9241 3.42282 7.67327 3.37187C7.42244 3.32092 7.16244 3.34707 6.92617 3.44701C6.68989 3.54695 6.48794 3.7162 6.34585 3.93334C6.20377 4.15049 6.12793 4.40578 6.12793 4.66694C6.12831 5.01702 6.26467 5.35265 6.50709 5.6002C6.7495 5.84775 7.07818 5.98699 7.421 5.98738ZM7.421 4.22679C7.50625 4.22679 7.58959 4.25261 7.66047 4.30097C7.73135 4.34934 7.7866 4.41808 7.81922 4.4985C7.85184 4.57893 7.86038 4.66743 7.84375 4.75281C7.82712 4.83819 7.78607 4.91662 7.72579 4.97817C7.66551 5.03973 7.5887 5.08165 7.50509 5.09863C7.42148 5.11561 7.33482 5.1069 7.25606 5.07358C7.1773 5.04027 7.10998 4.98386 7.06262 4.91147C7.01526 4.83909 6.98998 4.75399 6.98998 4.66694C6.99011 4.55025 7.03556 4.43837 7.11637 4.35585C7.19717 4.27334 7.30673 4.22692 7.421 4.22679Z" fill="white"/>
<path d="M19.0279 8.62828C18.5708 8.627 18.1181 8.7183 17.6958 8.8969C17.2736 9.07551 16.8902 9.33787 16.5679 9.66879L13.612 12.6873C13.456 12.8466 13.3151 13.0206 13.1911 13.2069C13.0111 13.3316 12.8429 13.4733 12.6887 13.6301L9.73279 16.6486C9.08038 17.3148 8.71387 18.2184 8.71387 19.1605C8.71387 20.1027 9.08038 21.0063 9.73279 21.6725C10.3852 22.3387 11.27 22.713 12.1927 22.713C13.1153 22.713 14.0002 22.3387 14.6526 21.6725L17.6085 18.654C17.7645 18.4947 17.9054 18.3207 18.0294 18.1344C18.2094 18.0096 18.3776 17.8679 18.5318 17.7112L21.4877 14.6927C21.9742 14.1959 22.3056 13.5629 22.4398 12.8738C22.5741 12.1847 22.5052 11.4704 22.2419 10.8213C21.9786 10.1721 21.5327 9.61733 20.9606 9.22698C20.3885 8.83663 19.7159 8.62828 19.0279 8.62828ZM14.2327 18.2154L12.6453 19.8364C12.4973 19.9865 12.2971 20.0706 12.0885 20.0702C11.88 20.0699 11.68 19.9851 11.5326 19.8345C11.3851 19.6839 11.3021 19.4798 11.3017 19.2668C11.3014 19.0538 11.3837 18.8494 11.5307 18.6983L13.1178 17.0776C13.3991 17.5392 13.7806 17.9285 14.2328 18.2154H14.2327ZM14.0429 21.0501C13.5522 21.5512 12.8866 21.8327 12.1926 21.8327C11.4985 21.8327 10.833 21.5512 10.3422 21.0501C9.85146 20.5489 9.57576 19.8693 9.57576 19.1605C9.57576 18.4518 9.85146 17.7722 10.3422 17.271L12.6014 14.9641C12.5964 15.0421 12.593 15.1203 12.593 15.1992C12.5929 15.5448 12.642 15.8885 12.7389 16.2196L10.9212 18.0758C10.7674 18.2322 10.6453 18.418 10.5619 18.6226C10.4784 18.8272 10.4354 19.0465 10.4351 19.2682C10.4349 19.4898 10.4774 19.7093 10.5604 19.9141C10.6433 20.1189 10.765 20.3049 10.9184 20.4616C11.0719 20.6183 11.2541 20.7426 11.4547 20.8273C11.6552 20.912 11.8702 20.9554 12.0872 20.9552C12.3042 20.9549 12.5191 20.9109 12.7194 20.8258C12.9198 20.7406 13.1017 20.6159 13.2548 20.4588L16.4199 17.2268C16.6222 17.0202 16.7684 16.7635 16.8442 16.4818C16.9201 16.2002 16.9228 15.9032 16.8523 15.6201C16.7818 15.337 16.6404 15.0774 16.4421 14.8669C16.2437 14.6565 15.9951 14.5023 15.7208 14.4195L16.3562 13.7707C16.7209 13.9645 17.0357 14.2434 17.2753 14.5846C17.5148 14.9259 17.6722 15.3199 17.7348 15.7349C17.7974 16.1498 17.7633 16.574 17.6355 16.973C17.5076 17.372 17.2895 17.7347 16.9989 18.0316L14.0429 21.0501ZM15.1826 15.234C15.206 15.2319 15.2294 15.2305 15.2531 15.2305C15.462 15.2307 15.6624 15.3156 15.8101 15.4664C15.9579 15.6173 16.041 15.8219 16.0413 16.0353C16.0413 16.0595 16.0399 16.0834 16.0378 16.1073C16.0144 16.1094 15.991 16.1108 15.9673 16.1108C15.7584 16.1105 15.5581 16.0257 15.4103 15.8748C15.2626 15.7239 15.1795 15.5194 15.1792 15.306C15.1792 15.2818 15.1806 15.258 15.1827 15.234H15.1826ZM16.9882 13.1252L18.575 11.5049C18.723 11.3548 18.9232 11.2707 19.1318 11.271C19.3403 11.2714 19.5402 11.3562 19.6877 11.5068C19.8352 11.6574 19.9182 11.8615 19.9186 12.0745C19.9189 12.2875 19.8366 12.4919 19.6896 12.643L18.1048 14.2614C17.8234 13.7998 17.4413 13.411 16.9883 13.1252H16.9882ZM20.8782 14.0703L18.6191 16.3772C18.6241 16.2992 18.6275 16.2209 18.6275 16.142C18.6276 15.7962 18.5788 15.4521 18.4826 15.1205L20.2992 13.2653C20.453 13.109 20.5751 12.9232 20.6585 12.7186C20.7419 12.514 20.785 12.2946 20.7853 12.073C20.7855 11.8514 20.743 11.6319 20.66 11.4271C20.5771 11.2223 20.4554 11.0362 20.302 10.8795C20.1485 10.7228 19.9663 10.5986 19.7657 10.5139C19.5652 10.4292 19.3502 10.3857 19.1332 10.386C18.9162 10.3863 18.7013 10.4302 18.501 10.5154C18.3006 10.6006 18.1187 10.7253 17.9656 10.8823L14.8005 14.1144C14.5982 14.3209 14.452 14.5777 14.3762 14.8593C14.3003 15.141 14.2976 15.438 14.3681 15.7211C14.4386 16.0042 14.58 16.2638 14.7783 16.4742C14.9767 16.6847 15.2253 16.8389 15.4996 16.9217L14.8643 17.5704C14.4996 17.3766 14.1847 17.0978 13.9452 16.7565C13.7057 16.4153 13.5482 16.0212 13.4856 15.6063C13.423 15.1914 13.457 14.7672 13.5849 14.3682C13.7128 13.9691 13.9309 13.6065 14.2215 13.3096L17.1775 10.2911C17.6682 9.78997 18.3338 9.50843 19.0278 9.50843C19.7218 9.50843 20.3874 9.78997 20.8782 10.2911C21.3689 10.7922 21.6446 11.4719 21.6446 12.1806C21.6446 12.8893 21.3689 13.569 20.8782 14.0702L20.8782 14.0703Z" fill="white"/>
</g>
<defs>
<clipPath id="clip0">
<rect width="27.5856" height="28.1695" fill="white" transform="translate(0.0932617 0.705627)"/>
</clipPath>
</defs>
</svg>
