<svg width="45" height="46" viewBox="0 0 45 46" fill="none" xmlns="http://www.w3.org/2000/svg">
<g clip-path="url(#clip0)">
<path d="M22.5 45.5454C34.9264 45.5454 45 35.4718 45 23.0454C45 10.619 34.9264 0.54541 22.5 0.54541C10.0736 0.54541 0 10.619 0 23.0454C0 35.4718 10.0736 45.5454 22.5 45.5454Z" fill="#3B5998"/>
<path d="M28.1565 23.9262H24.1416V38.6347H18.0588V23.9262H15.1658V18.757H18.0588V15.412C18.0588 13.0199 19.1951 9.2742 24.1958 9.2742L28.7015 9.29305V14.3106H25.4323C24.8961 14.3106 24.142 14.5785 24.142 15.7196V18.7618H28.6879L28.1565 23.9262Z" fill="white"/>
</g>
<defs>
<clipPath id="clip0">
<rect width="45" height="45" fill="white" transform="translate(0 0.54541)"/>
</clipPath>
</defs>
</svg>
