<svg width="45" height="46" viewBox="0 0 45 46" fill="none" xmlns="http://www.w3.org/2000/svg">
<g clip-path="url(#clip0)">
<path d="M22.5 45.8182C10.0755 45.8182 0 35.7427 0 23.3182C0 10.8937 10.0755 0.818176 22.5 0.818176C34.9245 0.818176 45 10.8937 45 23.3182C45 35.7427 34.9245 45.8182 22.5 45.8182Z" fill="url(#paint0_linear)"/>
<path d="M22.5 10.7272C26.5995 10.7272 27.0855 10.7407 28.7055 10.8172C30.204 10.8847 31.0185 11.1367 31.5585 11.3482C32.274 11.6272 32.787 11.9602 33.3225 12.4957C33.858 13.0312 34.191 13.5442 34.47 14.2597C34.6815 14.7997 34.929 15.6142 35.001 17.1127C35.073 18.7327 35.091 19.2187 35.091 23.3182C35.091 27.4177 35.0775 27.9037 35.001 29.5237C34.9335 31.0222 34.6815 31.8367 34.47 32.3767C34.191 33.0922 33.858 33.6052 33.3225 34.1407C32.787 34.6762 32.274 35.0092 31.5585 35.2882C31.0185 35.4997 30.204 35.7472 28.7055 35.8192C27.0855 35.8912 26.5995 35.9092 22.5 35.9092C18.4005 35.9092 17.9145 35.8957 16.2945 35.8192C14.796 35.7517 13.9815 35.4997 13.4415 35.2882C12.726 35.0092 12.213 34.6762 11.6775 34.1407C11.142 33.6052 10.809 33.0922 10.53 32.3767C10.3185 31.8367 10.071 31.0222 9.99896 29.5237C9.92696 27.9037 9.90896 27.4177 9.90896 23.3182C9.90896 19.2187 9.92246 18.7327 9.99896 17.1127C10.0665 15.6142 10.3185 14.7997 10.53 14.2597C10.809 13.5442 11.142 13.0312 11.6775 12.4957C12.213 11.9602 12.726 11.6272 13.4415 11.3482C13.9815 11.1367 14.796 10.8892 16.2945 10.8172C17.9145 10.7407 18.4005 10.7272 22.5 10.7272ZM22.5 7.95967C18.3285 7.95967 17.8065 7.97767 16.1685 8.05417C14.535 8.13067 13.419 8.38717 12.438 8.76967C11.43 9.15667 10.5705 9.68317 9.71996 10.5382C8.86496 11.3932 8.34296 12.2482 7.94696 13.2607C7.56896 14.2372 7.30796 15.3532 7.23146 16.9912C7.15496 18.6292 7.13696 19.1512 7.13696 23.3227C7.13696 27.4942 7.15496 28.0162 7.23146 29.6542C7.30796 31.2877 7.56446 32.4037 7.94696 33.3847C8.33846 34.3882 8.86496 35.2477 9.71996 36.0982C10.575 36.9532 11.43 37.4752 12.4425 37.8712C13.419 38.2492 14.535 38.5102 16.173 38.5867C17.811 38.6632 18.333 38.6812 22.5045 38.6812C26.676 38.6812 27.198 38.6632 28.836 38.5867C30.4695 38.5102 31.5855 38.2537 32.5665 37.8712C33.57 37.4797 34.4295 36.9532 35.28 36.0982C36.135 35.2432 36.657 34.3882 37.053 33.3757C37.431 32.3992 37.692 31.2832 37.7685 29.6452C37.845 28.0072 37.863 27.4852 37.863 23.3137C37.863 19.1422 37.845 18.6202 37.7685 16.9822C37.692 15.3487 37.4355 14.2327 37.053 13.2517C36.6615 12.2482 36.135 11.3887 35.28 10.5382C34.425 9.68317 33.57 9.16117 32.5575 8.76517C31.581 8.38717 30.465 8.12617 28.827 8.04967C27.1935 7.97767 26.6715 7.95967 22.5 7.95967Z" fill="white"/>
<path d="M22.4998 15.4297C18.1438 15.4297 14.6113 18.9622 14.6113 23.3182C14.6113 27.6742 18.1438 31.2067 22.4998 31.2067C26.8558 31.2067 30.3883 27.6742 30.3883 23.3182C30.3883 18.9622 26.8558 15.4297 22.4998 15.4297ZM22.4998 28.4392C19.6738 28.4392 17.3788 26.1487 17.3788 23.3182C17.3788 20.4877 19.6738 18.1972 22.4998 18.1972C25.3258 18.1972 27.6208 20.4877 27.6208 23.3182C27.6208 26.1487 25.3258 28.4392 22.4998 28.4392Z" fill="white"/>
<path d="M30.699 16.9642C31.718 16.9642 32.544 16.1381 32.544 15.1192C32.544 14.1002 31.718 13.2742 30.699 13.2742C29.68 13.2742 28.854 14.1002 28.854 15.1192C28.854 16.1381 29.68 16.9642 30.699 16.9642Z" fill="white"/>
</g>
<defs>
<linearGradient id="paint0_linear" x1="6.59009" y1="39.2281" x2="38.4099" y2="7.40827" gradientUnits="userSpaceOnUse">
<stop stop-color="#FFD521"/>
<stop offset="0.0551048" stop-color="#FFD020"/>
<stop offset="0.1241" stop-color="#FEC01E"/>
<stop offset="0.2004" stop-color="#FCA71B"/>
<stop offset="0.2821" stop-color="#FA8316"/>
<stop offset="0.3681" stop-color="#F85510"/>
<stop offset="0.4563" stop-color="#F51E09"/>
<stop offset="0.5" stop-color="#F30005"/>
<stop offset="0.5035" stop-color="#F20007"/>
<stop offset="0.5966" stop-color="#E1003B"/>
<stop offset="0.6879" stop-color="#D30067"/>
<stop offset="0.7757" stop-color="#C70088"/>
<stop offset="0.8589" stop-color="#BF00A0"/>
<stop offset="0.9357" stop-color="#BB00AF"/>
<stop offset="1" stop-color="#B900B4"/>
</linearGradient>
<clipPath id="clip0">
<rect width="45" height="45" fill="white" transform="translate(0 0.818176)"/>
</clipPath>
</defs>
</svg>
