<svg width="50" height="50" viewBox="0 0 50 50" fill="none" xmlns="http://www.w3.org/2000/svg">
<g clip-path="url(#clip0)">
<path d="M42.6291 7.46184C37.993 2.82591 31.8291 0.272705 25.2727 0.272705C18.7164 0.272705 12.5525 2.82591 7.91643 7.46184C3.2805 12.098 0.727295 18.2618 0.727295 24.8182C0.727295 31.3745 3.2805 37.5384 7.91643 42.1745C12.5525 46.8104 18.7164 49.3636 25.2727 49.3636C29.7612 49.3636 34.1529 48.1404 37.9733 45.8263C38.8791 45.2775 39.1686 44.0983 38.6199 43.1925C38.0711 42.2866 36.8919 41.9972 35.9862 42.5459C32.7652 44.4971 29.0605 45.5284 25.2727 45.5284C13.8531 45.5284 4.56252 36.2378 4.56252 24.8182C4.56252 13.3985 13.8531 4.10793 25.2727 4.10793C36.6924 4.10793 45.983 13.3985 45.983 24.8182C45.983 28.9016 44.7686 32.8764 42.4712 36.3127C41.8826 37.1931 42.1192 38.384 42.9996 38.9726C43.8801 39.5614 45.071 39.3247 45.6595 38.4443C48.3802 34.375 49.8182 29.663 49.8182 24.8182C49.8182 18.2618 47.265 12.098 42.6291 7.46184Z" fill="white"/>
<path d="M23.2273 14.7912C21.8766 14.0075 20.2625 14.0048 18.9096 14.7841C17.5516 15.566 16.741 16.97 16.741 18.5397V31.0967C16.741 32.6663 17.5516 34.0703 18.9096 34.8522C19.584 35.2407 20.3231 35.4348 21.0623 35.4348C21.8061 35.4348 22.55 35.2381 23.2273 34.845L34.0472 28.5666C35.3973 27.7831 36.2033 26.3819 36.2033 24.8181C36.2033 23.2544 35.3973 21.8531 34.0472 21.0697L23.2273 14.7912ZM32.1223 25.2493L21.3024 31.5278C21.1046 31.6427 20.9328 31.5915 20.8236 31.5287C20.7106 31.4637 20.5762 31.336 20.5762 31.0966V18.5397C20.5762 18.3003 20.7106 18.1726 20.8236 18.1076C20.8855 18.0719 20.9675 18.0401 21.0629 18.0401C21.1359 18.0401 21.2167 18.0587 21.3024 18.1085L32.1223 24.387C32.3255 24.5048 32.3681 24.6865 32.3681 24.8181C32.3681 24.9498 32.3255 25.1315 32.1223 25.2493Z" fill="white"/>
</g>
<defs>
<clipPath id="clip0">
<rect width="49.0909" height="49.0909" fill="white" transform="translate(0.727295 0.272705)"/>
</clipPath>
</defs>
</svg>
