<svg width="45" height="46" viewBox="0 0 45 46" fill="none" xmlns="http://www.w3.org/2000/svg">
<g clip-path="url(#clip0)">
<circle cx="22.909" cy="23.0909" r="16.3636" fill="#FFE400"/>
<path d="M22.5 0.181763C10.0755 0.181763 0 10.2573 0 22.6818C0 35.1063 10.0755 45.1818 22.5 45.1818C34.9245 45.1818 45 35.1063 45 22.6818C45 10.2573 34.9245 0.181763 22.5 0.181763ZM35.9751 29.9465C35.813 30.3241 35.0845 30.8607 32.5364 31.2542C32.3276 31.2861 32.2469 31.5577 32.1227 32.1266C32.0773 32.3336 32.0317 32.5372 31.9688 32.7511C31.9146 32.9365 31.7989 33.0233 31.6042 33.0233H31.5726C31.4374 33.0233 31.2458 32.999 31.0024 32.9512C30.5708 32.8671 30.0871 32.7895 29.4715 32.7895C29.1121 32.7895 28.7402 32.8204 28.3664 32.8822C27.6018 33.0099 26.9526 33.4679 26.2652 33.9541C25.2665 34.6606 24.2355 35.3895 22.6284 35.3895C22.5584 35.3895 22.49 35.3871 22.421 35.384C22.3771 35.3878 22.3314 35.3895 22.2858 35.3895C20.6794 35.3895 19.6484 34.661 18.6514 33.9555C17.963 33.4693 17.3131 33.0099 16.5475 32.8822C16.1739 32.8204 15.8021 32.7895 15.4433 32.7895C14.7955 32.7895 14.2853 32.8894 13.9121 32.9622C13.6859 33.0065 13.4902 33.0446 13.3415 33.0446C13.1863 33.0446 13.0185 33.011 12.9453 32.7614C12.8818 32.5447 12.8362 32.3357 12.7915 32.1324C12.6775 31.6112 12.5969 31.2906 12.3785 31.2569C9.8307 30.8635 9.10114 30.3265 8.93875 29.9458C8.91609 29.8915 8.90236 29.8366 8.89961 29.7831C8.89137 29.6365 8.99471 29.507 9.1396 29.4837C13.0559 28.8389 14.8123 24.8354 14.8854 24.6655C14.8872 24.6614 14.8892 24.6566 14.8916 24.6521C15.1313 24.1663 15.178 23.7443 15.0317 23.3986C14.7629 22.7655 13.886 22.4871 13.3058 22.3031C13.164 22.2578 13.0294 22.2155 12.923 22.1733C11.765 21.7157 11.6689 21.246 11.7145 21.0067C11.7921 20.5985 12.3373 20.3139 12.7785 20.3139C12.899 20.3139 13.0054 20.3355 13.095 20.3774C13.6162 20.6211 14.0855 20.7451 14.491 20.7451C15.0506 20.7451 15.295 20.5099 15.3249 20.479C15.3101 20.214 15.2926 19.9369 15.2748 19.6509C15.158 17.7997 15.0132 15.4984 15.5996 14.1852C17.3553 10.2487 21.0783 9.94243 22.178 9.94243C22.2061 9.94243 22.66 9.93762 22.66 9.93762H22.7249C23.8266 9.93762 27.5585 10.2439 29.315 14.1828C29.901 15.4967 29.7561 17.7997 29.6394 19.6499L29.6342 19.7306C29.6181 19.9881 29.6023 20.2383 29.5893 20.4783C29.6174 20.5072 29.8423 20.7231 30.3494 20.7427H30.3497C30.736 20.7279 31.1789 20.6047 31.6653 20.3774C31.8075 20.3104 31.9661 20.2964 32.0736 20.2964C32.2387 20.2964 32.4052 20.3286 32.5436 20.386L32.5525 20.3897C32.9456 20.5291 33.2034 20.8045 33.2089 21.0929C33.2141 21.3641 33.0067 21.772 31.9912 22.1733C31.8858 22.2148 31.7512 22.2574 31.6084 22.3027C31.0275 22.4868 30.1513 22.7655 29.8825 23.3983C29.7359 23.7443 29.7826 24.1656 30.0225 24.6514C30.0246 24.6562 30.027 24.6607 30.0291 24.6655C30.1019 24.8354 31.8562 28.8375 35.7749 29.4833C35.9195 29.507 36.0231 29.6365 36.0149 29.7824C36.0118 29.8373 35.9984 29.8926 35.9751 29.9465Z" fill="black"/>
</g>
<defs>
<clipPath id="clip0">
<rect width="45" height="45" fill="white" transform="translate(0 0.181763)"/>
</clipPath>
</defs>
</svg>
