<svg width="45" height="46" viewBox="0 0 45 46" fill="none" xmlns="http://www.w3.org/2000/svg">
<g clip-path="url(#clip0)">
<path d="M22.4999 0.0908203C34.927 0.0908203 45 10.1652 45 22.5909C45 35.018 34.927 45.0908 22.4999 45.0908C10.0728 45.0908 0 35.0178 0 22.5909C0 10.1652 10.073 0.0908203 22.4999 0.0908203Z" fill="#26A6D1"/>
<path d="M36.5668 15.2488C35.5839 15.6734 34.5263 15.9589 33.4169 16.0883C34.5504 15.4287 35.4194 14.3867 35.8286 13.1423C34.7683 13.754 33.5954 14.197 32.3453 14.4346C31.3454 13.401 29.9209 12.7555 28.3432 12.7555C25.3169 12.7555 22.8616 15.1363 22.8616 18.0753C22.8616 18.493 22.9095 18.8994 23.0036 19.2889C18.4474 19.0668 14.4058 16.9475 11.703 13.7287C11.2305 14.5148 10.9605 15.4274 10.9605 16.4033C10.9605 18.2483 11.928 19.8795 13.399 20.8316C12.499 20.8035 11.6552 20.5658 10.9142 20.1651V20.2326C10.9142 22.8116 12.8041 24.9619 15.3129 25.4512C14.853 25.5722 14.3692 25.6383 13.8686 25.6383C13.5156 25.6383 13.1725 25.606 12.8378 25.5427C13.5352 27.6577 15.5603 29.196 17.9608 29.2383C16.0835 30.667 13.7195 31.5165 11.1504 31.5165C10.7073 31.5165 10.2714 31.4911 9.84106 31.442C12.2696 32.9523 15.1497 33.834 18.2476 33.834C28.3333 33.834 33.8486 25.7228 33.8486 18.6915L33.8332 18.0024C34.9018 17.2541 35.8314 16.3176 36.5668 15.2488Z" fill="white"/>
</g>
<defs>
<clipPath id="clip0">
<rect width="45" height="45" fill="white" transform="translate(0 0.0908203)"/>
</clipPath>
</defs>
</svg>
