<svg width="45" height="46" viewBox="0 0 45 46" fill="none" xmlns="http://www.w3.org/2000/svg">
<g clip-path="url(#clip0)">
<path d="M22.5 45.4545C10.0755 45.4545 0 35.379 0 22.9545C0 10.53 10.0755 0.454468 22.5 0.454468C34.9245 0.454468 45 10.53 45 22.9545C45 35.379 34.9245 45.4545 22.5 45.4545Z" fill="#FF0000"/>
<path d="M36.8191 15.7139C36.4771 14.4179 35.4646 13.4009 34.1776 13.0544C31.8466 12.4244 22.5046 12.4244 22.5046 12.4244C22.5046 12.4244 13.1581 12.4244 10.8316 13.0544C9.54456 13.4009 8.53206 14.4179 8.19006 15.7139C7.56006 18.0584 7.56006 22.9544 7.56006 22.9544C7.56006 22.9544 7.56006 27.8504 8.18556 30.1949C8.52756 31.4909 9.54006 32.5079 10.8271 32.8544C13.1581 33.4844 22.5001 33.4844 22.5001 33.4844C22.5001 33.4844 31.8466 33.4844 34.1731 32.8544C35.4601 32.5079 36.4726 31.4909 36.8146 30.1949C37.4401 27.8504 37.4401 22.9544 37.4401 22.9544C37.4401 22.9544 37.4401 18.0584 36.8191 15.7139ZM19.4446 27.3959V18.5129L27.2521 22.9544L19.4446 27.3959Z" fill="white"/>
</g>
<defs>
<clipPath id="clip0">
<rect width="45" height="45" fill="white" transform="translate(0 0.454468)"/>
</clipPath>
</defs>
</svg>
