<svg width="80" height="80" viewBox="0 0 80 80" fill="none" xmlns="http://www.w3.org/2000/svg">
<path d="M24.5038 25.0965C24.7816 26.3744 25.2076 27.2017 25.7046 27.7172C26.8869 35.9469 34.2738 42.9603 40.2068 42.6671C47.7543 42.2967 53.1039 34.1627 54.3047 27.7172C54.8017 27.2048 55.2801 26.109 55.5672 24.8217C55.8883 23.3431 56.234 21.1144 55.345 19.9352C55.2925 19.8734 54.9529 19.5617 54.8943 19.5092C55.7432 16.447 57.6077 10.9832 52.965 6.07193C50.4492 3.41102 46.9548 2.0744 43.7969 1.01868C34.4745 -2.096 27.8932 2.27196 24.8557 9.53542C24.6365 10.0509 23.2196 13.3138 24.936 19.5092C24.7693 19.6203 24.618 19.7623 24.4914 19.9352C23.5993 21.1113 24.1797 23.6178 24.5038 25.0965Z" fill="white"/>
<path d="M72.718 70.3565C72.4587 64.6921 72.1377 55.7154 67.1894 48.3717C67.1894 48.3717 65.7787 46.4485 62.4325 45.1706C62.4325 45.1706 55.1659 42.9573 51.8197 40.5649L50.2917 41.6114L50.4615 51.545L41.2872 76.0364C41.0866 76.5736 40.5742 76.9285 40.0031 76.9285C39.432 76.9285 38.9196 76.5736 38.7189 76.0364L29.5478 51.545C29.5478 51.545 29.7175 41.6422 29.7145 41.6114C29.7361 41.6947 28.1834 40.5649 28.1834 40.5649C24.8433 42.9573 17.5737 45.1706 17.5737 45.1706C14.2275 46.4485 12.8168 48.3717 12.8168 48.3717C7.87158 55.7154 7.54437 64.6921 7.28507 70.3565C7.10603 74.2707 7.92715 75.7308 8.95817 76.1476C21.7564 81.2841 58.2405 81.2841 71.0418 76.1476C72.079 75.7339 72.894 74.2707 72.718 70.3565Z" fill="white"/>
<path d="M40.3303 45.8311L39.9167 45.8404C38.5831 45.8404 37.2372 45.5811 35.916 45.1242L39.5524 50.6899L36.2896 53.8385L39.6481 74.2336C39.6759 74.4096 39.8271 74.5362 40.0062 74.5362C40.1821 74.5362 40.3334 74.4096 40.3643 74.2336L43.7228 53.8385L40.4569 50.6899L44.0408 45.2076C42.8708 45.5502 41.633 45.7786 40.3303 45.8311Z" fill="white"/>
</svg>
