<svg width="80" height="80" viewBox="0 0 80 80" fill="none" xmlns="http://www.w3.org/2000/svg">
<path d="M23.4375 30.7812C10.5141 30.7812 0 41.2953 0 54.2188C0 67.1422 10.5141 77.6562 23.4375 77.6562C36.3609 77.6562 46.875 67.1422 46.875 54.2188C46.875 41.2953 36.3609 30.7812 23.4375 30.7812ZM23.4375 71.4062C13.9603 71.4062 6.25 63.6959 6.25 54.2188C6.25 44.7416 13.9603 37.0312 23.4375 37.0312C32.9147 37.0312 40.625 44.7416 40.625 54.2188C40.625 63.6959 32.9147 71.4062 23.4375 71.4062ZM23.4375 44.8438C18.2681 44.8438 14.0625 49.0494 14.0625 54.2188C14.0625 59.3881 18.2681 63.5938 23.4375 63.5938C28.6069 63.5938 32.8125 59.3881 32.8125 54.2188C32.8125 49.0494 28.6069 44.8438 23.4375 44.8438ZM23.4375 57.3438C21.7144 57.3438 20.3125 55.9419 20.3125 54.2188C20.3125 52.4956 21.7144 51.0938 23.4375 51.0938C25.1606 51.0938 26.5625 52.4956 26.5625 54.2188C26.5625 55.9419 25.1606 57.3438 23.4375 57.3438ZM80 54.2188C80 67.1422 69.4859 77.6562 56.5625 77.6562C53.9056 77.6562 51.2975 77.2144 48.8105 76.343C47.1816 75.7722 46.3239 73.9892 46.8945 72.3605C47.4652 70.7317 49.2483 69.8741 50.877 70.4445C52.6984 71.0827 54.6113 71.4062 56.5625 71.4062C66.0397 71.4062 73.75 63.6959 73.75 54.2188C73.75 44.7416 66.0397 37.0312 56.5625 37.0312C54.515 37.0312 52.5133 37.3867 50.6131 38.088C48.9941 38.6853 47.197 37.8572 46.5994 36.238C46.002 34.6189 46.8303 32.8219 48.4494 32.2244C51.0447 31.2667 53.7742 30.7812 56.5625 30.7812C69.4859 30.7812 80 41.2953 80 54.2188ZM16.678 23.4412C17.2495 17.6842 19.9288 12.3602 24.2219 8.44984C28.545 4.51219 34.1486 2.34375 40 2.34375C45.82 2.34375 51.4008 4.49187 55.7145 8.39219C59.9959 12.2636 62.6911 17.5441 63.3033 23.2611C63.487 24.9772 62.2448 26.5173 60.5286 26.7011C58.8136 26.8847 57.2723 25.6425 57.0886 23.9266C56.153 15.1855 48.8063 8.59375 40 8.59375C31.1253 8.59375 23.7728 15.2422 22.8975 24.0588C22.7375 25.6711 21.3783 26.8752 19.7916 26.8752C19.6881 26.8752 19.5841 26.87 19.4791 26.8597C17.7616 26.6892 16.5075 25.1588 16.678 23.4412ZM49.3289 24.8475C49.4994 26.565 48.2453 28.0955 46.5278 28.2659C46.423 28.2762 46.3186 28.2814 46.2155 28.2814C44.6284 28.2814 43.2695 27.0773 43.1094 25.465C42.9505 23.8638 41.6138 22.6562 40 22.6562C38.4264 22.6562 37.0933 23.83 36.8994 25.3866C36.6859 27.0992 35.1255 28.3156 33.4117 28.1009C31.6991 27.8875 30.4839 26.3259 30.6973 24.6134C31.2806 19.9345 35.28 16.4062 40 16.4062C44.8405 16.4062 48.8511 20.0352 49.3289 24.8475ZM58.7722 56.4286C59.9908 55.2102 59.9908 53.2275 58.7722 52.0091C57.8838 51.1205 56.5559 50.8509 55.3892 51.3222C53.7887 51.9686 51.9678 51.1952 51.3214 49.595C50.6748 47.9947 51.4483 46.1734 53.0486 45.527C56.545 44.1145 60.5264 44.9242 63.1919 47.5897C66.8472 51.245 66.8472 57.1925 63.1919 60.8478C61.3972 62.6425 59.0053 63.5959 56.567 63.5959C55.3842 63.5959 54.1908 63.3717 53.0486 62.9103C51.4483 62.2639 50.675 60.4427 51.3214 58.8423C51.9678 57.242 53.7895 56.4692 55.3892 57.1152C56.5559 57.5867 57.8836 57.317 58.7722 56.4286Z" fill="white"/>
</svg>
