<svg width="80" height="80" viewBox="0 0 80 80" fill="none" xmlns="http://www.w3.org/2000/svg">
<path d="M77.3104 64.0099V17.3722C77.3059 13.6945 74.3256 10.7141 70.6479 10.7097H61.2697C56.2736 3.97255 48.382 0 39.9948 0C31.6075 0 23.7159 3.97255 18.7199 10.7095H9.35233C5.67459 10.714 2.69426 13.6943 2.68982 17.372V64.0098C1.21799 64.0098 0.0247803 65.203 0.0247803 66.6748V70.6723C0.0306542 75.8214 4.20324 79.994 9.35233 79.9998H70.6477C75.7965 79.9932 79.9686 75.8211 79.9753 70.6723V66.6748C79.9753 65.2031 78.7822 64.0099 77.3104 64.0099ZM23.0479 9.74492C29.7274 3.05335 39.7185 0.917768 48.55 4.29403C57.3814 7.6703 63.3999 15.9264 63.9118 25.3673H61.2468C60.912 19.9471 58.5133 14.8611 54.5443 11.1548C54.5029 11.1124 54.4582 11.0734 54.4111 11.0375C46.2804 3.4939 33.709 3.4939 25.5783 11.0375C25.531 11.0732 25.4865 11.1124 25.4451 11.1548C21.478 14.8621 19.0814 19.9478 18.748 25.3673H16.083C16.3825 19.4751 18.8655 13.9058 23.0479 9.74492ZM58.6551 49.3523H55.9901V28.0322H58.6551V49.3523ZM61.3202 28.0322H63.9852C66.9288 28.0322 69.3153 30.4184 69.3153 33.3623V44.0224C69.3153 46.9661 66.929 49.3525 63.9852 49.3525H61.3202V28.0322ZM49.5595 10.7095H30.4407C36.3183 7.1564 43.6817 7.1564 49.5595 10.7095ZM16.0148 49.3523C13.0712 49.3523 10.6848 46.9661 10.6848 44.0222V33.3621C10.6848 30.4184 13.071 28.032 16.0148 28.032H18.6799V49.3522H16.0148V49.3523ZM21.3449 28.0322H24.01V49.3523H21.3449V28.0322ZM5.35485 17.3722C5.35485 15.1644 7.14467 13.3747 9.35233 13.3747H16.9477C14.7494 17.1633 13.529 21.4395 13.3965 25.8177C10.1828 26.9342 8.02624 29.9603 8.01973 33.3624V44.0226C8.02418 48.4363 11.6011 52.0132 16.0148 52.0177H24.01C25.4818 52.0177 26.675 50.8245 26.675 49.3526V28.0322C26.675 26.5604 25.4818 25.3671 24.01 25.3671H21.4129C21.7332 20.8239 23.7105 16.5563 26.9695 13.3746H53.0307C56.2897 16.5563 58.267 20.8239 58.5873 25.3671H55.9901C54.5183 25.3671 53.325 26.5604 53.325 28.0322V49.3523C53.325 50.8241 54.5183 52.0174 55.9901 52.0174H57.6345L56.7897 53.4271C55.8223 55.0288 54.0891 56.0097 52.2179 56.0148H47.75C47.1874 54.4233 45.6857 53.3568 43.9977 53.3498H36.0025C33.7947 53.3498 32.0051 55.1396 32.0051 57.3473C32.0051 59.5549 33.7949 61.3447 36.0025 61.3447H43.9977C45.6857 61.3378 47.1874 60.2712 47.75 58.6797H52.2179C55.0241 58.6713 57.6227 57.2001 59.0736 54.7981L60.742 52.0172H63.9853C68.3991 52.0127 71.976 48.4358 71.9805 44.0221V33.3619C71.9767 29.9595 69.8198 26.9322 66.6051 25.8172C66.4673 21.4387 65.2438 17.163 63.0447 13.3742H70.648C72.8558 13.3742 74.6455 15.1641 74.6455 17.3717V64.0095H5.35485V17.3722ZM45.3301 57.3474C45.3301 58.0834 44.7335 58.6799 43.9977 58.6799H36.0025C35.2665 58.6799 34.6701 58.0833 34.6701 57.3474C34.6701 56.6116 35.2667 56.015 36.0025 56.015H43.9977C44.7335 56.0148 45.3301 56.6114 45.3301 57.3474ZM28.0074 66.675H51.9926V68.0074C51.9926 69.4792 50.7994 70.6724 49.3276 70.6724H30.6725C29.2006 70.6724 28.0074 69.4792 28.0074 68.0074V66.675ZM77.3104 70.6724C77.3059 74.3502 74.3256 77.3305 70.6479 77.335H9.35233C5.67459 77.3305 2.69426 74.3502 2.68982 70.6724V66.675H25.3426V68.0074C25.3426 70.9511 27.7288 73.3375 30.6726 73.3375H49.3277C52.2714 73.3375 54.6578 70.9512 54.6578 68.0074V66.675H77.3105V70.6724H77.3104Z" fill="white"/>
<path d="M20.0125 69.34H16.015C15.279 69.34 14.6826 69.9366 14.6826 70.6725C14.6826 71.4083 15.2792 72.0049 16.015 72.0049H20.0125C20.7485 72.0049 21.3449 71.4083 21.3449 70.6725C21.3449 69.9366 20.7483 69.34 20.0125 69.34Z" fill="white"/>
<path d="M8.01988 72.0049C8.75576 72.0049 9.35232 71.4083 9.35232 70.6725C9.35232 69.9366 8.75576 69.34 8.01988 69.34C7.28399 69.34 6.68744 69.9366 6.68744 70.6725C6.68744 71.4083 7.28399 72.0049 8.01988 72.0049Z" fill="white"/>
<path d="M12.0174 72.0049C12.7533 72.0049 13.3498 71.4083 13.3498 70.6725C13.3498 69.9366 12.7533 69.34 12.0174 69.34C11.2815 69.34 10.6849 69.9366 10.6849 70.6725C10.6849 71.4083 11.2815 72.0049 12.0174 72.0049Z" fill="white"/>
</svg>
