<svg width="80" height="80" viewBox="0 0 80 80" fill="none" xmlns="http://www.w3.org/2000/svg">
<path d="M30 22.5C31.4403 22.4983 32.8359 22 33.9516 21.0892C35.0674 20.1784 35.835 18.9108 36.125 17.5H23.8766C24.1665 18.9105 24.9339 20.1779 26.0493 21.0887C27.1647 21.9995 28.56 22.4979 30 22.5Z" fill="white"/>
<path d="M42.5 36.25C42.5 35.9185 42.6317 35.6005 42.8661 35.3661C43.1005 35.1317 43.4185 35 43.75 35C44.0815 35 44.3995 35.1317 44.6339 35.3661C44.8683 35.6005 45 35.9185 45 36.25V62.5H50V38.8438L47.2202 20.2864C47.0086 19.487 46.5383 18.7801 45.8828 18.276C45.2272 17.772 44.4232 17.4991 43.5962 17.5H43.5725L42.9355 21.6406C42.7918 22.6539 42.3235 23.5932 41.6009 24.3179C40.8783 25.0425 39.9403 25.5134 38.9275 25.66C38.022 25.8077 37.0931 25.6939 36.25 25.3319V60H42.5V36.25Z" fill="white"/>
<path d="M21.4597 23.1892C21.8761 23.2619 22.3045 23.2159 22.6959 23.0563C23.0873 22.8968 23.4259 22.6302 23.6728 22.2872C22.4152 20.9735 21.5993 19.2999 21.3389 17.5H18.957L19.5352 21.2597C19.6005 21.7476 19.8241 22.2007 20.1718 22.5492C20.5195 22.8978 20.9719 23.1226 21.4597 23.1892Z" fill="white"/>
<path d="M21.0725 25.6592C20.0598 25.5127 19.1219 25.0419 18.3993 24.3174C17.6767 23.5929 17.2084 22.6537 17.0645 21.6406L16.4275 17.5H16.4038C15.5768 17.4991 14.7728 17.772 14.1172 18.276C13.4617 18.7801 12.9914 19.487 12.7798 20.2864L10 38.8438V62.5H15V36.25C15 35.9185 15.1317 35.6005 15.3661 35.3661C15.6005 35.1317 15.9185 35 16.25 35C16.5815 35 16.8995 35.1317 17.1339 35.3661C17.3683 35.6005 17.5 35.9185 17.5 36.25V60H23.75V25.3314C22.9069 25.6934 21.978 25.8071 21.0725 25.6592Z" fill="white"/>
<path d="M26.25 24.1533V57.5H33.75V24.1533C32.5785 24.7108 31.2974 25 30 25C28.7026 25 27.4215 24.7108 26.25 24.1533Z" fill="white"/>
<path d="M38.5403 23.1892C39.028 23.1226 39.4804 22.8977 39.828 22.5491C40.1756 22.2006 40.3992 21.7476 40.4645 21.2597L41.0426 17.5H38.6611C38.4007 19.2999 37.5848 20.9735 36.3272 22.2872C36.5741 22.6302 36.9127 22.8968 37.3041 23.0563C37.6955 23.2159 38.1239 23.2619 38.5403 23.1892Z" fill="white"/>
<path d="M52.4863 38.5647C52.4954 38.626 52.5 38.688 52.5 38.75V63.75C52.5 64.0815 52.3683 64.3995 52.1339 64.6339C51.8995 64.8683 51.5815 65 51.25 65H43.75C43.4892 65.0001 43.2349 64.9181 43.0233 64.7656L42.5581 75H55V22.5H50.0797L52.4863 38.5647Z" fill="white"/>
<path d="M49.6831 19.8522L49.7053 20H67.5V17.5H48.597C49.0967 18.1665 49.458 18.9262 49.6595 19.7344C49.6693 19.7732 49.6772 19.8125 49.6831 19.8522Z" fill="white"/>
<path d="M63.2144 24.8392C62.9204 24.086 62.7158 23.3009 62.605 22.5H57.5V75H69.9419L67.8367 28.6875C65.7222 28.3922 64.0997 27.0522 63.2144 24.8392Z" fill="white"/>
<path d="M65.5575 23.9647C66.0349 25.1255 66.7474 25.8353 67.7197 26.1139L67.5555 22.5H65.1375C65.2269 23.0013 65.3676 23.4922 65.5575 23.9647Z" fill="white"/>
<path d="M37.8797 15H33.3703L30 12.7531L26.6297 15H22.1203L29.3062 10.2094C29.5119 10.073 29.7532 10.0002 30 9.99999C30.4944 9.99999 30.9778 9.85337 31.3889 9.57866C31.8 9.30396 32.1205 8.91351 32.3097 8.4567C32.4989 7.99988 32.5484 7.49722 32.4519 7.01226C32.3555 6.52731 32.1174 6.08185 31.7678 5.73222C31.4181 5.38259 30.9727 5.14449 30.4877 5.04803C30.0028 4.95156 29.5001 5.00107 29.0433 5.19029C28.5865 5.37951 28.196 5.69994 27.9213 6.11106C27.6466 6.52219 27.5 7.00554 27.5 7.49999C27.5 7.83151 27.3683 8.14945 27.1339 8.38387C26.8995 8.61829 26.5815 8.74999 26.25 8.74999C25.9185 8.74999 25.6005 8.61829 25.3661 8.38387C25.1317 8.14945 25 7.83151 25 7.49999C24.9994 6.63813 25.2217 5.79077 25.6452 5.04012C26.0686 4.28947 26.6789 3.66102 27.4169 3.21577C28.1548 2.77051 28.9953 2.52356 29.8568 2.49888C30.7183 2.4742 31.5716 2.67262 32.3338 3.0749C33.096 3.47718 33.7413 4.06966 34.207 4.79483C34.6728 5.52001 34.9432 6.35326 34.992 7.21373C35.0408 8.07421 34.8663 8.93269 34.4855 9.70587C34.1048 10.4791 33.5306 11.1407 32.8187 11.6266L37.8797 15Z" fill="white"/>
<path d="M64.1297 15H59.6203L56.25 12.7531L52.8797 15H48.3703L55.5562 10.2094C55.7619 10.073 56.0032 10.0002 56.25 9.99999C56.7444 9.99999 57.2278 9.85337 57.6389 9.57866C58.05 9.30396 58.3705 8.91351 58.5597 8.4567C58.7489 7.99988 58.7984 7.49722 58.7019 7.01226C58.6055 6.52731 58.3674 6.08185 58.0178 5.73222C57.6681 5.38259 57.2227 5.14449 56.7377 5.04803C56.2528 4.95156 55.7501 5.00107 55.2933 5.19029C54.8365 5.37951 54.446 5.69994 54.1713 6.11106C53.8966 6.52219 53.75 7.00554 53.75 7.49999C53.75 7.83151 53.6183 8.14945 53.3839 8.38387C53.1494 8.61829 52.8315 8.74999 52.5 8.74999C52.1685 8.74999 51.8505 8.61829 51.6161 8.38387C51.3817 8.14945 51.25 7.83151 51.25 7.49999C51.2494 6.63813 51.4717 5.79077 51.8952 5.04012C52.3186 4.28947 52.9289 3.66102 53.6669 3.21577C54.4048 2.77051 55.2453 2.52356 56.1068 2.49888C56.9683 2.4742 57.8216 2.67262 58.5838 3.0749C59.346 3.47718 59.9913 4.06966 60.457 4.79483C60.9228 5.52001 61.1932 6.35326 61.242 7.21373C61.2908 8.07421 61.1163 8.93269 60.7355 9.70587C60.3548 10.4791 59.7806 11.1407 59.0687 11.6266L64.1297 15Z" fill="white"/>
</svg>
