<svg width="80" height="80" viewBox="0 0 80 80" fill="none" xmlns="http://www.w3.org/2000/svg">
<g clip-path="url(#clip0)">
<path d="M52.0549 63.5615C54.6488 63.5615 56.7516 61.4587 56.7516 58.8648C56.7516 56.2709 54.6488 54.1681 52.0549 54.1681C49.461 54.1681 47.3582 56.2709 47.3582 58.8648C47.3582 61.4587 49.461 63.5615 52.0549 63.5615Z" fill="white"/>
<path d="M73.1367 49.2306V42.86C73.1367 38.7515 69.7942 35.409 65.6857 35.409H50.3101L48.1648 50.3184C49.351 49.7762 50.6677 49.4716 52.0549 49.4716C57.2344 49.4716 61.4483 53.6855 61.4483 58.865C61.4483 64.0445 57.2344 68.2584 52.0549 68.2584C49.8561 68.2584 47.8329 67.4969 46.2307 66.2266V71.1724C46.2307 74.5431 44.9911 77.6295 42.9441 80.0002H65.2935C69.6477 80.0002 73.1901 76.4578 73.1901 72.1036V49.2306H73.1367Z" fill="white"/>
<path d="M63.7967 24.9295H51.8179L50.9859 30.7123H63.7967V24.9295Z" fill="white"/>
<path d="M52.4937 20.2328H63.6959C63.126 16.8401 60.1697 14.2461 56.6176 14.2461H53.3553L52.4937 20.2328Z" fill="white"/>
<path d="M7.10815 14.0883L13.514 61.0644H42.3762L48.7861 14.059L7.10815 14.0883ZM27.9451 41.7239C23.1972 41.7239 19.3345 37.8611 19.3345 33.1132C19.3345 28.3653 23.1972 24.5026 27.9451 24.5026C32.693 24.5026 36.5557 28.3653 36.5557 33.1132C36.5557 37.8611 32.693 41.7239 27.9451 41.7239Z" fill="white"/>
<path d="M27.9451 37.0271C30.1067 37.0271 31.8591 35.2748 31.8591 33.1132C31.8591 30.9516 30.1067 29.1993 27.9451 29.1993C25.7835 29.1993 24.0312 30.9516 24.0312 33.1132C24.0312 35.2748 25.7835 37.0271 27.9451 37.0271Z" fill="white"/>
<path d="M49.0803 9.36211V0H6.80994V9.3917L49.0803 9.36211Z" fill="white"/>
<path d="M30.2935 65.7611V70.2977H25.5968V65.7611H13.855V71.6945C13.855 76.1881 17.5109 79.844 22.0046 79.844H33.8857C38.3793 79.844 42.0353 76.1881 42.0353 71.6945V65.7611H30.2935Z" fill="white"/>
</g>
<defs>
<clipPath id="clip0">
<rect width="80" height="80" fill="white"/>
</clipPath>
</defs>
</svg>
