<svg width="80" height="80" viewBox="0 0 80 80" fill="none" xmlns="http://www.w3.org/2000/svg">
<path d="M14.8438 7.8125H2.34375C1.04937 7.8125 0 8.86187 0 10.1562V35.1562C0 36.4506 1.04937 37.5 2.34375 37.5H14.8438C16.1381 37.5 17.1875 36.4506 17.1875 35.1562V10.1562C17.1875 8.86187 16.1381 7.8125 14.8438 7.8125Z" fill="white"/>
<path d="M14.8438 42.1875H2.34375C1.04937 42.1875 0 43.2369 0 44.5312V69.5312C0 70.8256 1.04937 71.875 2.34375 71.875H14.8438C16.1381 71.875 17.1875 70.8256 17.1875 69.5312V44.5312C17.1875 43.2369 16.1381 42.1875 14.8438 42.1875Z" fill="white"/>
<path d="M36.7188 25H24.2188C22.9244 25 21.875 26.0494 21.875 27.3438V46.0938C21.875 47.3881 22.9244 48.4375 24.2188 48.4375H36.7188C38.0131 48.4375 39.0625 47.3881 39.0625 46.0938V27.3438C39.0625 26.0494 38.0131 25 36.7188 25Z" fill="white"/>
<path d="M36.7188 0H24.2188C22.9244 0 21.875 1.04937 21.875 2.34375V17.9688C21.875 19.2631 22.9244 20.3125 24.2188 20.3125H36.7188C38.0131 20.3125 39.0625 19.2631 39.0625 17.9688V2.34375C39.0625 1.04937 38.0131 0 36.7188 0Z" fill="white"/>
<path d="M39.375 53.4375H65.9375V80H39.375V53.4375Z" fill="white"/>
<path d="M25.3125 55.7812V77.6562C25.3125 78.9506 26.3619 80 27.6562 80H34.6875V53.4375H27.6562C26.3619 53.4375 25.3125 54.4869 25.3125 55.7812Z" fill="white"/>
<path d="M77.6562 53.4375H70.625V80H77.6562C78.9506 80 80 78.9506 80 77.6562V55.7812C80 54.4869 78.9506 53.4375 77.6562 53.4375Z" fill="white"/>
<path d="M77.6562 0H46.4062C45.1119 0 44.0625 1.04937 44.0625 2.34375V46.0938C44.0625 47.3881 45.1119 48.4375 46.4062 48.4375H77.6562C78.9506 48.4375 80 47.3881 80 46.0938V2.34375C80 1.04937 78.9506 0 77.6562 0ZM70.625 36.7188C70.625 38.0131 69.5756 39.0625 68.2812 39.0625H55.7812C54.4869 39.0625 53.4375 38.0131 53.4375 36.7188V11.7188C53.4375 10.4244 54.4869 9.375 55.7812 9.375H68.2812C69.5756 9.375 70.625 10.4244 70.625 11.7188V36.7188Z" fill="white"/>
<path d="M58.125 14.0625H65.9375V34.375H58.125V14.0625Z" fill="white"/>
</svg>
