<svg width="80" height="80" viewBox="0 0 80 80" fill="none" xmlns="http://www.w3.org/2000/svg">
<path d="M18.6465 18.0942L16.7329 16.3639C15.7548 17.4452 14.3587 18.0645 12.9032 18.0645C10.0568 18.0645 7.74193 15.7497 7.74193 12.9032C7.74193 10.0568 10.0568 7.74193 12.9032 7.74193C15.7497 7.74193 18.0645 10.0568 18.0645 12.9032C18.0645 13.6542 17.9071 14.3781 17.5974 15.0542L19.9419 16.1303C20.409 15.1148 20.6452 14.0284 20.6452 12.9032C20.6452 8.63354 17.1729 5.16129 12.9032 5.16129C8.63355 5.16129 5.16129 8.63354 5.16129 12.9032C5.16129 17.1729 8.63355 20.6452 12.9032 20.6452C15.0865 20.6452 17.1806 19.7148 18.6465 18.0942Z" fill="white"/>
<path d="M5.16129 67.0968C5.16129 71.3664 8.63355 74.8387 12.9032 74.8387C17.1729 74.8387 20.6452 71.3664 20.6452 67.0968C20.6452 62.8271 17.1729 59.3548 12.9032 59.3548C8.63355 59.3548 5.16129 62.8271 5.16129 67.0968ZM18.0645 67.0968C18.0645 69.9432 15.7497 72.2581 12.9032 72.2581C10.0568 72.2581 7.74193 69.9432 7.74193 67.0968C7.74193 64.2503 10.0568 61.9355 12.9032 61.9355C15.7497 61.9355 18.0645 64.2503 18.0645 67.0968Z" fill="white"/>
<path d="M25.8064 12.9032C25.8064 5.78839 20.0181 0 12.9032 0C5.78839 0 0 5.78839 0 12.9032C0 16.9819 1.91742 20.7897 5.16129 23.2245V56.7755C1.91742 59.2103 0 63.0181 0 67.0968C0 74.2116 5.78839 80 12.9032 80C20.0181 80 25.8064 74.2116 25.8064 67.0968C25.8064 63.0181 23.889 59.2103 20.6452 56.7755V23.2245C23.889 20.7897 25.8064 16.9819 25.8064 12.9032ZM18.6374 58.5148C21.5097 60.4374 23.2258 63.6452 23.2258 67.0968C23.2258 72.7884 18.5948 77.4193 12.9032 77.4193C7.21161 77.4193 2.58065 72.7884 2.58065 67.0968C2.58065 63.6452 4.29677 60.4374 7.16903 58.5148L7.74194 58.1316V21.8684L7.16903 21.4852C4.29677 19.5626 2.58065 16.3548 2.58065 12.9032C2.58065 7.21161 7.21161 2.58065 12.9032 2.58065C18.5948 2.58065 23.2258 7.21161 23.2258 12.9032C23.2258 16.3548 21.5097 19.5626 18.6374 21.4852L18.0645 21.8684V58.1316L18.6374 58.5148Z" fill="white"/>
<path d="M74.8387 56.7755V23.2245C78.0826 20.7897 80 16.9819 80 12.9032C80 5.78839 74.2116 0 67.0968 0C59.9819 0 54.1936 5.78839 54.1936 12.9032C54.1936 16.9819 56.111 20.7897 59.3548 23.2245V56.7755C56.111 59.2103 54.1936 63.0181 54.1936 67.0968C54.1936 74.2116 59.9819 80 67.0968 80C74.2116 80 80 74.2116 80 67.0968C80 63.0181 78.0826 59.2103 74.8387 56.7755ZM67.0968 77.4193C61.4052 77.4193 56.7742 72.7884 56.7742 67.0968C56.7742 63.6452 58.4903 60.4374 61.3626 58.5148L61.9355 58.1316V21.8684L61.3626 21.4852C58.4903 19.5626 56.7742 16.3548 56.7742 12.9032C56.7742 7.21161 61.4052 2.58065 67.0968 2.58065C72.7884 2.58065 77.4194 7.21161 77.4194 12.9032C77.4194 16.3548 75.7032 19.5626 72.831 21.4852L72.2581 21.8684V58.1316L72.831 58.5148C75.7032 60.4374 77.4194 63.6452 77.4194 67.0968C77.4194 72.7884 72.7884 77.4193 67.0968 77.4193Z" fill="white"/>
<path d="M14.1935 23.2258H11.6129V25.8064H14.1935V23.2258Z" fill="white"/>
<path d="M14.1935 30.9677H11.6129V33.5484H14.1935V30.9677Z" fill="white"/>
<path d="M14.1935 38.7097H11.6129V41.2903H14.1935V38.7097Z" fill="white"/>
<path d="M14.1935 46.4516H11.6129V49.0322H14.1935V46.4516Z" fill="white"/>
<path d="M14.1935 54.1935H11.6129V56.7742H14.1935V54.1935Z" fill="white"/>
<path d="M45.1613 25.8065C45.1613 22.96 42.8465 20.6452 40 20.6452C37.1535 20.6452 34.8387 22.96 34.8387 25.8065C34.8387 28.6529 37.1535 30.9678 40 30.9678C42.8465 30.9678 45.1613 28.6529 45.1613 25.8065ZM40 28.3871C38.5768 28.3871 37.4194 27.2297 37.4194 25.8065C37.4194 24.3832 38.5768 23.2258 40 23.2258C41.4232 23.2258 42.5806 24.3832 42.5806 25.8065C42.5806 27.2297 41.4232 28.3871 40 28.3871Z" fill="white"/>
<path d="M34.8387 69.6774C34.8387 72.5239 37.1535 74.8387 40 74.8387C42.8465 74.8387 45.1613 72.5239 45.1613 69.6774C45.1613 66.831 42.8465 64.5161 40 64.5161C37.1535 64.5161 34.8387 66.831 34.8387 69.6774ZM42.5806 69.6774C42.5806 71.1006 41.4232 72.258 40 72.258C38.5768 72.258 37.4194 71.1006 37.4194 69.6774C37.4194 68.2542 38.5768 67.0968 40 67.0968C41.4232 67.0968 42.5806 68.2542 42.5806 69.6774Z" fill="white"/>
<path d="M50.3226 25.8064C50.3226 20.1148 45.6916 15.4839 40 15.4839C34.3084 15.4839 29.6774 20.1148 29.6774 25.8064C29.6774 29.4839 31.6787 32.9032 34.8387 34.7355V60.7484C31.6787 62.5806 29.6774 66 29.6774 69.6774C29.6774 75.369 34.3084 80 40 80C45.6916 80 50.3226 75.369 50.3226 69.6774C50.3226 66 48.3213 62.5806 45.1613 60.7484V34.7355C48.3213 32.9032 50.3226 29.4839 50.3226 25.8064ZM43.3161 62.6916C46.0052 63.9703 47.7419 66.7122 47.7419 69.6774C47.7419 73.9471 44.2697 77.4193 40 77.4193C35.7303 77.4193 32.2581 73.9471 32.2581 69.6774C32.2581 66.7122 33.9948 63.9703 36.6839 62.6916L37.4194 62.3406V33.1432L36.6839 32.7935C33.9948 31.5135 32.2581 28.7716 32.2581 25.8064C32.2581 21.5368 35.7303 18.0645 40 18.0645C44.2697 18.0645 47.7419 21.5368 47.7419 25.8064C47.7419 28.7716 46.0052 31.5135 43.3161 32.7922L42.5806 33.1432V62.3419L43.3161 62.6916Z" fill="white"/>
<path d="M70.8219 19.3548L74.5471 12.9032L70.8219 6.4516H63.3729L59.6477 12.9032L63.3729 19.3548H70.8219ZM64.8619 9.03224H69.3316L71.5665 12.9032L69.3316 16.7742H64.8619L62.6271 12.9032L64.8619 9.03224Z" fill="white"/>
<path d="M63.3716 60.6452L59.6465 67.0968L63.3716 73.5484H70.8206L74.5458 67.0968L70.8206 60.6452H63.3716ZM69.3316 70.9678H64.8619L62.6271 67.0968L64.8619 63.2258H69.3316L71.5665 67.0968L69.3316 70.9678Z" fill="white"/>
<path d="M68.3871 55.4839H65.8064V58.0645H68.3871V55.4839Z" fill="white"/>
<path d="M68.3871 21.9355H65.8064V24.5161H68.3871V21.9355Z" fill="white"/>
<path d="M68.3871 27.0968H65.8064V52.9032H68.3871V27.0968Z" fill="white"/>
</svg>
