<svg width="80" height="80" viewBox="0 0 80 80" fill="none" xmlns="http://www.w3.org/2000/svg">
<path d="M18.9062 10.7031H7.03125C5.73578 10.7031 4.6875 11.7514 4.6875 13.0469C4.6875 14.3423 5.73578 15.3906 7.03125 15.3906H18.9062C20.2017 15.3906 21.25 14.3423 21.25 13.0469C21.25 11.7514 20.2017 10.7031 18.9062 10.7031Z" fill="white"/>
<path d="M18.9062 29.4531H7.03125C5.73578 29.4531 4.6875 30.5014 4.6875 31.7969C4.6875 33.0923 5.73578 34.1406 7.03125 34.1406H18.9062C20.2017 34.1406 21.25 33.0923 21.25 31.7969C21.25 30.5014 20.2017 29.4531 18.9062 29.4531Z" fill="white"/>
<path d="M14.2188 20.0781H2.34375C1.04828 20.0781 0 21.1264 0 22.4219C0 23.7173 1.04828 24.7656 2.34375 24.7656H14.2188C15.5142 24.7656 16.5625 23.7173 16.5625 22.4219C16.5625 21.1264 15.5142 20.0781 14.2188 20.0781Z" fill="white"/>
<path d="M75.3125 31.7969H61.0938V22.4219C61.0938 18.3053 56.058 16.1378 53.0906 19.1091L34.342 37.8577C32.5109 39.6887 32.5109 42.655 34.342 44.4861L45.0903 55.2344L31.9983 68.3264C30.1672 70.1575 30.1672 73.1237 31.9983 74.9548C33.8292 76.7858 36.7956 76.7859 38.6267 74.9548L55.033 58.5486C56.8641 56.7175 56.8641 53.7512 55.033 51.9202L44.2847 41.1719L51.7188 33.7378V36.4844C51.7188 39.073 53.8177 41.1719 56.4063 41.1719H75.3125C77.9011 41.1719 80 39.073 80 36.4844C80 33.8958 77.9011 31.7969 75.3125 31.7969Z" fill="white"/>
<path d="M43.7719 7.97499C41.9087 6.7367 39.4369 6.9817 37.8575 8.56092L24.9669 21.4515C23.1358 23.2826 23.1358 26.2489 24.9669 28.08C26.798 29.9111 29.7644 29.9109 31.5955 28.0798L41.7692 17.9061L45.1964 20.3748L49.7755 15.7958C50.5414 15.0298 51.4448 14.4353 52.4328 13.9711L43.7719 7.97499Z" fill="white"/>
<path d="M31.0278 47.8003C29.8402 46.6127 29.0473 45.1509 28.6294 43.5703L3.87328 68.3264C2.04219 70.1575 2.04219 73.1238 3.87328 74.9548C5.70422 76.7858 8.67062 76.7859 10.5017 74.9548L34.342 51.1145L31.0278 47.8003Z" fill="white"/>
<path d="M63.4375 17.7344C67.3208 17.7344 70.4688 14.5864 70.4688 10.7031C70.4688 6.81987 67.3208 3.67188 63.4375 3.67188C59.5542 3.67188 56.4062 6.81987 56.4062 10.7031C56.4062 14.5864 59.5542 17.7344 63.4375 17.7344Z" fill="white"/>
</svg>
