<svg width="24" height="24" viewBox="0 0 24 24" fill="none" xmlns="http://www.w3.org/2000/svg">
<g clip-path="url(#clip0)">
<path d="M22.4088 23.2111L20.5847 5.8405C20.5464 5.47686 20.2399 5.20073 19.8742 5.20073H16.4458V4.41906C16.4458 1.98248 14.4633 0 12.0267 0C9.58995 0 7.60747 1.98248 7.60747 4.41906V5.20073H4.17901C3.81335 5.20073 3.50683 5.47686 3.46857 5.8405L1.64447 23.2111C1.62342 23.4124 1.68878 23.6132 1.8241 23.7637C1.9596 23.9141 2.15259 24 2.35492 24H21.6981C21.9007 24 22.0936 23.9141 22.229 23.7637C22.3646 23.6132 22.4298 23.4124 22.4088 23.2111ZM9.03606 4.41906C9.03606 2.7702 10.3777 1.42859 12.0267 1.42859C13.6756 1.42859 15.0172 2.7702 15.0172 4.41906V5.20073H9.03606V4.41906ZM3.14813 22.5714L4.82226 6.62932H7.60747V8.20347C7.60747 8.59788 7.92736 8.91777 8.32177 8.91777C8.71617 8.91777 9.03606 8.59788 9.03606 8.20347V6.62932H15.0172V8.20347C15.0172 8.59788 15.3371 8.91777 15.7315 8.91777C16.1259 8.91777 16.4458 8.59788 16.4458 8.20347V6.62932H19.231L20.9051 22.5714H3.14813Z" fill="#696E79"/>
</g>
<defs>
<clipPath id="clip0">
<rect width="24" height="24" fill="white"/>
</clipPath>
</defs>
</svg>
